<?xml version="1.0" encoding="UTF-8"?>
<svg version="1.1" viewBox="0 0 1893 851" width="1893" height="851" xmlns="http://www.w3.org/2000/svg">
<path transform="translate(0)" d="m0 0h1893v851h-1893z" fill="#FCFCFC"/>
<path transform="translate(1535,133)" d="m0 0 7 1v36h2v-2l5-1h7l6 2 16-5 6-1h22l11 3 1-9h21l1-5 2-8 12 1 4 7v5l9 2 2-4 10 2 6 10-6 11 5 2 4 5 4-5 10-1 5 8-1 6-3 3 3 3 3 8-1 5-9 10-4 4 1 9-3 2-3 5-3 3-7 9h2l-2 15-5 15-5 10h-2v3h-2v3l-2 1-3 5-8 7-3 4-3 1-1 2h-3v2h-3l-1 3-8 2v2l-15 5-13 2h-16l-17-3-16-7-5-2v-2l-5-2-6-5-7-8-4-3-1-3-4-4v-3h-2l-4-9v-3h-2l-4-14-1-11v-15l1-11 1-6-8-2-3-6v-2h-2l1-7v-11l2-5 8-7 16-9 7-3 1-39z" fill="#560402"/>
<path transform="translate(143,411)" d="m0 0h238l5 4 1 2v43l-4 5-2 1h-238l-5-4-1-2v-43l4-5z" fill="#02875F"/>
<path transform="translate(620,666)" d="m0 0h22l11 9 14 12 11 9 14 12 6 5-2 6-6 11h-3v-4h-2l-1 7-6 9-8 7-13 5h-16l-22-8h-2l-1 3-4-1 1-4-15 2-9 3h-11l-8-6-1-4 8-6 4-8v-8l-5-9-9-6-12-2 1-6 5-6 11-7 8-4 11-4 12-2 16-1-4-1v-2z" fill="#F6C604"/>
<path transform="translate(730,697)" d="m0 0h39v3h4l1-2 10-1h11 3 4l3 19-1 3h2v5l-5 2 5 3v44l-2 2-15 1h-47l-9-1h-5l-2-3v-71z" fill="#BF8028"/>
<path transform="translate(816,697)" d="m0 0h32l-1 11h2l1-2h3v-2l7-2h6l1-4 4 1v-2h17l-1 13-3 5-1 1h8l-1-18 3 3v64 2l-1 7-4 2h-4l1-4 3-3-3 2h-4v4l-14 1h-30l-2-1-2 1h-13l-3-3v-2l-4 1-1-1v-69z" fill="#BE812A"/>
<path transform="translate(1119,697)" d="m0 0h13l5 6-2 5-5 4 4-1 4-4v-7l-2-3h6l6 4 5 2v2l13-5 2-3h6v5l6-5h14v2h-2v2l4 1v9l-4 2h4v44l-13 5-1 1v13l-28-1-1-3-2 1-3-2-4-1-3 1-1 2 4-1 1 4h-16l-2-1h-8l-2-1-1-4v-69z" fill="#BB7D2A"/>
<path transform="translate(1643,151)" d="m0 0 3 3 1 10 3 6 4-10 2-1-1 8-3 9 5 2 2-5 5-9v-4l3-1 2-4 10 2 6 10-6 11 5 2 4 5 4-5 10-1 5 8-1 6-3 3 3 3 2 5v4l-6 7-11 12-4 1-7-1-3 4-5 1v2l-4 1h-16l-5-2v-2l-4-1-6-5v-3h-2l-5-12-4-3v-2l1-10 4-15v-2l1-6v-9l1-3 8-1v-3z" fill="#5A0602"/>
<path transform="translate(145,793)" d="m0 0h159l4 3v18l-5 4h-158l-4-4v-18z" fill="#E7E1EA"/>
<path transform="translate(730,666)" d="m0 0h159l4 4v16l-3 3h-161l-3-3v-16z" fill="#E8E1EA"/>
<path transform="translate(145,731)" d="m0 0h159l4 4v15l-4 4h-159l-4-4v-15z" fill="#E7E1EA"/>
<path transform="translate(145,700)" d="m0 0h159l4 4v15l-4 4h-159l-4-4v-15z" fill="#E8E2EA"/>
<path transform="translate(338,770)" d="m0 0h163l2 3v16l-3 3h-161l-3-3v-16z" fill="#E8E2EA"/>
<path transform="translate(339,801)" d="m0 0h161l3 3v16l-3 3h-161l-3-3v-16z" fill="#E8E2EB"/>
<path transform="translate(338,739)" d="m0 0h163l2 3v15l-3 4h-161l-3-4v-15z" fill="#E8E2EB"/>
<path transform="translate(923,658)" d="m0 0h9l3 3v5l-3 3-5 1h5l4-4 1-6-2-1 4-1 9 5 5-1 4-2 1-2h4v5l5-5h10l1 4 1 1v5l-3 2 3 1v26l-2 7 2 2v8l-3 3h-28v-3l-4 1-4-2-1 2 4 2h-21l-1-2v-28l-1-1v-24z" fill="#BA7D2C"/>
<path transform="translate(1609,349)" d="m0 0h11l6 2 4-2h9l4 5 6-5h9l4 4 2 4 3-6 2-2h29l2 2-1 5-8 16-4 10-2 9-1 11-4 4h-6l-4-3v-8l5-13 10-16 4-6-22 1v2h-2v14l-4 11-8 7-2 1h-6l1-3 3-3 2-7v-22l-2-4-4-1-2 4-1 29-4 2-6-1-2-1-1-4v-30l-3-1v6l-6 5-12 7 1 5 4 5 2 1h8l5-2-1 4-8 5h-13l-7-4-4-6-1-3v-13l5-8 6-5z" fill="#F3C306"/>
<path transform="translate(1535,133)" d="m0 0 7 1v36h2v-2l5-1h7l7 8 7 1 3 6-1 6-6 8-10 7-10 6-10 5-18 6-10 1-4-2-3-6 1-2 1 1h10l17-5 15-8 1-4-12 7-17 6-11 1-4-7v-2l14-2 14-6v-2l-9 4-7 2h-8l1-5 3-1v-2l10-6 1-4 11-5 1-39z" fill="#570E08"/>
<path transform="translate(1120,666)" d="m0 0h92v23h-93l-3-3v-16z" fill="#E8E2EB"/>
<path transform="translate(1587,211)" d="m0 0h13l13 4 14 7 6 5 6 10 1 8-4-1v-4l-4 3-9-1-15-1v-1h-12l-2 1-30 1-2-1v2l-8 1-7 3-1-5 3-9 6-8h2l1-3 14-7 8-3z" fill="#C28427"/>
<path transform="translate(340,616)" d="m0 0h159l5 3 3 5v3h-175l1-6 4-4z" fill="#C0C0C0"/>
<path transform="translate(145,616)" d="m0 0h159l5 3 3 5v3h-175l1-6 4-4z" fill="#BFBFBF"/>
<path transform="translate(1511,233)" d="m0 0h1v11l9 1 4 8-4 1h-10l1 5v7l17-4h3l4 5v2l-20 7 3 9 6-1 15-8h2v8l-10 7-6 4 2 5 3 3v2l4-2 6 5-1 4 7 6 5 1 6 2-1 4 11 3 3-7h9l-2 11h12l1-11h8l1 5v7l12-1-2-11h9l2 5v3l10-4v-5l6-3h3 4l4-3h2l-1-4-2-3 5-5h3l3 2 6-7v-2l-10-7 2-5 1-2 5 1 8 4 4-10-8-3 2-4 5-4 5 1v-7l2-4h1v8l-2 9-4 12-5 10h-2v3h-2v3l-2 1-3 5-8 7-3 4-3 1-1 2h-3v2h-3l-1 3-8 2v2l-15 5-13 2h-16l-17-3-16-7-5-2v-2l-5-2-6-5-7-8-4-3-1-3-4-4v-3h-2l-4-9v-3h-2l-4-14-1-11v-15l1-8z" fill="#5E0B04"/>
<path transform="translate(425,149)" d="m0 0h25l9 3 5 5 2 7-1 9-3 5-4 3h-2l8 16 4 7v2h-11l-10-20v-2h-12v22h-10z" fill="#22272B"/>
<path transform="translate(1542,349)" d="m0 0h11l5 2 4-2h8l4 4 4 21 2 5 4-1 3-8v-14l-1-6 1-1h5l2 3v11l-3 14-5 10-4 3-6 1-6-3-6-12-4-21-2 6-5 4-12 7 2 7 5 4h8l5-2-1 4-8 5h-13l-7-4-4-6-1-4v-11l4-8 5-5z" fill="#F1C108"/>
<path transform="translate(620,666)" d="m0 0h22l11 9 14 12 11 9 14 12 6 5-2 6-6 11h-3v-4l-4-2-15-13-11-9-13-11-17-14-5-4-3-2-4-2v-2z" fill="#B87726"/>
<path transform="translate(538,788)" d="m0 0h13l1 5 4-2h3l3-3h6l2 2v5l1 1 1-4v35l-2 3h-32v-2h-2l-1-7v-26l2-6z" fill="#BE802B"/>
<path transform="translate(1679,174)" d="m0 0 1 2-1 2 5 2 4 5 4-5 10-1 5 8-1 6-3 3 3 3 2 5v4l-6 7-11 12-4 1-8-1-2-1 10-10 8-7 4-4h2l-1-2-7 6-3 3-4 2-8 8-7 8-2 2-5 1h-8l1-4 13-18 8-10-2-6-1-4-3-2 1-4 5-6-1-2z" fill="#601006"/>
<path transform="translate(554,701)" d="m0 0 11 1 10 6 4 6 1 3v8l-4 8-8 6-8 2h-7l-9-3-7-5-4-8v-8l4-8 8-6z" fill="#BB7D2E"/>
<path transform="translate(626,788)" d="m0 0h8l3 3 3 1 6-4h2v3l4-3 4 1 2 2v30l-5 2-1 7h-13v-2h-4l-1 2h-10v-2h-2v-37z" fill="#B97D2F"/>
<path transform="translate(1679,253)" d="m0 0 3 1-1 2-2 3-1 7h-6l-6 7 6 1 3 3-5 10-13-6-2 7 10 7-2 5-6 5-4-3-5 6 3 4-5 5-5 2-3-2-4 3h-3l1 5-9 4h-2l-2-8h-9l2 7v4l-5 1h-7l-1-12h-8v11l-1 1h-8l-4-1 1-8 1-3h-9l-2 7-2 1-10-4 1-4-6-1-6-2-7-6 2-4-4-2 1-2 8 2 2 8 4 2 5 2h71l9-2 2-6 2-4 7-2 2-8-3-1 1-6 3-1 2-5 6-7 2-1 3-5 3-3 3-4h2l2-5 3-1z" fill="#CAB495"/>
<path transform="translate(1852,12)" d="m0 0 9 1 6 4 5 6 2 7-1 9-4 6-6 5-7 2-9-1-6-4-5-6-2-7 1-9 4-6 6-5z" fill="#560101"/>
<path transform="translate(157,148)" d="m0 0h9l10 4 5 7 1 6h-10l-2-5-4-3h-9l-5 3v6l4 4 16 6 8 7 2 6-1 9-4 5-6 3-4 1h-10l-9-3-6-5-2-5v-5h9l3 7 4 2h11l4-3v-7l-5-4-16-6-7-6-2-6 1-8 6-7z" fill="#202326"/>
<path transform="translate(598,163)" d="m0 0h8l8 3 4 6 1 28 1 6h-10v-3l-8 4h-7l-7-3-4-6v-8l4-6 5-3 5-1h11l-2-8-2-1h-6l-4 1-1 4h-9l1-6 6-5z" fill="#202225"/>
<path transform="translate(713,163)" d="m0 0h8l7 3 4 4 1 3 1 29 1 4h-10v-3l-5 3-4 1h-7l-6-3-4-5v-10l5-6 9-3h11l-2-7-3-2h-6l-3 2-1 3h-9l1-6 5-5z" fill="#202225"/>
<path transform="translate(488,163)" d="m0 0h8l7 3 5 6 2 8v8h-28l4 8 3 2h10l4-3 4 1 2 4-6 5-6 2h-8l-8-3-6-7-2-5v-13l3-8 7-6z" fill="#202326"/>
<path transform="translate(331,163)" d="m0 0h8l7 3 5 6 2 11v5h-28l4 8 3 2h9l5-3 4 2 2 3-6 5-6 2h-8l-8-3-5-5-3-7v-14l4-8 7-6z" fill="#212427"/>
<path transform="translate(204,163)" d="m0 0h7l7 3 5 5 2 7v10h-27l2 6 4 4h10l6-4 4 4-2 4-3 3-7 2h-8l-8-3-6-7-2-8v-8l4-11 6-5z" fill="#212326"/>
<path transform="translate(1581,166)" d="m0 0h9l1 1 1 20v20h6v-21l2-20h10l2 1-2 13h2l3-13h1v7l-3 9-3 1-3 8-3 12-2 6-23 1-4-9-3-6 1-11-3-9h-7l-6-8 5 2h7l6 10 3 17 3 11 4-1-1-9-5-24-1-7z" fill="#ECC024"/>
<path transform="translate(816,697)" d="m0 0h7l-1 2h-6l3 5 6 5 11 9 2 2-1-5-1-2h-3l-1-2v-8h6l2 3v3l5 5 1 3-1 4 5 3 11 7-1 3-1-3h-2l-1 4-2-5-2-1-1 6 4 2 1 5-2 2-4-1v-3h-2v-2l-8-2-2 5-5 4-4-4-2-3v-3h-3v-3l4 1 1-5 5-1-1-1-12 1-2-1v2l-5 1-1-1v-9l2-2-2-1v-7l1-1-1-8z" fill="#2A2724"/>
<path transform="translate(39,10)" d="m0 0h7l14 8 6 4-6 7-3 3 9 9v2l-21 12h-5l-3-3v-40z" fill="#5CA4A7"/>
<path transform="translate(813,701)" d="m0 0 2 2v5l-1 1-1 7h5l-4 3v9l2-2v2h3v-2l17-1-4 4-3-1v6l-5-2v3h3l6 11 1 4-3 1 1 3 12-3 8-1 3 3-2 3-19 2-7 1-2-1 1 8-4 4 4-1 2 1-1 4 4 2h-11l-3-3v-2l-4 1-1-1v-69z" fill="#BD8433"/>
<path transform="translate(1584,303)" d="m0 0h19l6 3 6-2h10l3 2h6l4-1-1 5-6 5-9 1h-65l-6-3-2-5v-3l8 2 5-3h10l4 2 5-1z" fill="#C18327"/>
<path transform="translate(628,164)" d="m0 0h10l1 34h10l4-3 1-31h9v42h-9v-3l-8 4h-8l-6-3-3-5-1-5z" fill="#222528"/>
<path transform="translate(761,163)" d="m0 0h7l5 2 4 5 1 4v32h-9l-1-30-1-4h-10l-4 4-1 30h-9v-42h9l1 3z" fill="#202124"/>
<path transform="translate(378,163)" d="m0 0h7l5 2 4 5 1 4v32h-9l-1-30-1-4h-10l-4 4-1 30h-9v-42h9l1 3z" fill="#202124"/>
<path transform="translate(1609,349)" d="m0 0h11l6 2 2 1 1 2h-3v6l-6 5-12 7 1 5 4 5 2 1h8l5-2-1 4-8 5h-13l-7-4-4-6-1-3v-13l5-8 6-5z" fill="#F1C008"/>
<path transform="translate(1511,229)" d="m0 0 3 1 3 5v3h2l6 10 10 15 7 9 1 2v8h2l1 12-8 1-1 9-6 1-6-8 2-4 14-9v-6l1-2-19 10-5-1-3-9 9-4 12-3-4-5v-2l-15 4h-5l-1-12 13-2-3-5v-2h-9l-1-1v-10l-1-3z" fill="#F2C108"/>
<path transform="translate(529,163)" d="m0 0h8l8 3 4 4 1 7h-9l-3-5-2-1h-6l-3 2v6l13 3 8 5 2 3v9l-4 5-8 3h-9l-8-3-5-6v-5h9l1 5 4 1h7l3-2v-5l-7-3-10-3-5-5-1-2 1-9 7-6z" fill="#212427"/>
<path transform="translate(1562,349)" d="m0 0h8l4 4 4 21 2 5 4-1 3-8v-14l-1-6 1-1h5l2 3v11l-3 14-5 10-4 3-6 1-6-3-6-12-4-21-1-3z" fill="#F2C207"/>
<path transform="translate(730,697)" d="m0 0h34l1 1v6l-9 9h-2-1l-1 2h-2v2l-4-1v2l-2 1-2 3-1-2h-3v2l-8 3h-3l-1-5v-19z" fill="#560503"/>
<path transform="translate(270,149)" d="m0 0h39v6l-9 21-7 15-6 14-1 1h-9l1-5 11-24 7-15 2-5-28-1z" fill="#202326"/>
<path transform="translate(1584,163)" d="m0 0h22v2l4 1h-10l-2 41h-6l-2-40h-12l4 17 4 18v5l-5 1-4-11-3-17-5-8v-2l-7 1v-2l16-5z" fill="#5C0803"/>
<path transform="translate(1571,298)" d="m0 0 4 5h4l3-5 4 1 5 1 1-2 4 1 3 1 5-2 4 5 3 1 2-1 2-4h3l1 2 5-1 4-1 3 4 4-1 2-2 4 1 1 3 7-2-2 4h-6l-2 7-4 4-7 2h-71l-5-2-5-5-1-7-2-1 3-4 5 1 1 2 4-1 3-3 4 2 5-1zm13 5-5 3-5-1-2-1h-10l-5 3-5-2h-3l1 6 4 4 7 1h63l8-1 6-6v-4l-10 1-3-2h-10l-6 2-6-3z" fill="#570201"/>
<path transform="translate(1508,349)" d="m0 0h11l5 3 1 7-2 2-5-1v-4l1-3-7 1 3 7 10 10 2 5-1 8-4 5-10 2-9-3-4-4v-2l4 1 6 2 4-2-1-6-7-8-4-7v-7l5-5z" fill="#F0BF08"/>
<path transform="translate(1643,151)" d="m0 0 3 3v7l-2 2 3 5-3 12v2l-1 8-7 22h-3l-3-5-4-2 1-10 4-15v-2l1-6v-9l1-3 8-1v-3z" fill="#F5C505"/>
<path transform="translate(229,164)" d="m0 0h9l8 25v4h2l2-10 6-19h9l-2 9-11 32-1 1h-8l-8-21-6-18z" fill="#202124"/>
<path transform="translate(790,154)" d="m0 0h10v10h7v7h-7l1 27 6 1v7l-2 1h-7l-5-2-3-7v-27h-7v-7h7z" fill="#23282B"/>
<path transform="translate(561,154)" d="m0 0h10v10h7v7h-7l1 27 6 1v7l-2 1h-7l-5-2-3-7v-27h-7v-7h7z" fill="#23282B"/>
<path transform="translate(1566,178)" d="m0 0 5 5 1 5-6 8-10 7-10 6-10 5-18 6-10 1-4-2-3-6 1-2 1 1h10l17-5 17-9 8-6 6-4 1-2h2l1-4z" fill="#5DA7AE"/>
<path transform="translate(1557,173)" d="m0 0h2v2h2l2 7-10 9-19 11-17 6-11 1-4-7v-2l14-2 18-8 4-1v-2l5-1v-2h3v-2l3-1 6-7z" fill="#5CA7AD"/>
<path transform="translate(764,738)" d="m0 0 19 1 15 1v3l-5 1-1 2-15 4-5 1v-3l-5-1 3 5-4 2-5-1-1 1h-16v-2l-4 1v-3h-4l-1 3-4-2 1-3 20-6h4v-2z" fill="#570905"/>
<path transform="translate(1554,221)" d="m0 0 2 1-7 8-4 8-1 8 3 6-4 2-1 6 1 4-6-1-9-15-9-14 4-2 17-4z" fill="#58A6AD"/>
<path transform="translate(1564,275)" d="m0 0h59l15 2 3 3-8-1h-11l-15 4-5 3h-3v2l-4 2-4-1-14-7-9-2h-22l3-3z" fill="#F2C412"/>
<path transform="translate(1684,194)" d="m0 0 5 2 4 5-1 5-7 8-12 14-4 4-5 1h-8l1-4 13-18 11-14h2z" fill="#C08227"/>
<path transform="translate(1651,179)" d="m0 0 7 2 2 4v6l-11 25-5 10-4-2-4-5 3-10 7-21 3-6h2z" fill="#F2C208"/>
<path transform="translate(1666,188)" d="m0 0 5 1 4 5-1 7-13 18-9 12-6-2-1-3 12-24 7-11z" fill="#BF8028"/>
<path transform="translate(688,163)" d="m0 0h7v9l-10 2-2 2-1 30h-9v-42h9l1 3z" fill="#202124"/>
<path transform="translate(1566,295)" d="m0 0 2 3 2-2h6v4l5-1 1-3 7-1h8l6 1 8 4v-4h6l3 3v-3h10 3l7 1 3 3 1-4 4 2-1 6h-5l-2-3-4 1-2 2-4-1-2-3-5 2-5-1v-2l-3 1-2 4-3 1-5-5h-4l-4 1-5-3-1 3-5-1-4-2-1 4-3 3-4-2-3-4-3 3-10-2-2 4-4-1-1-2-4-1-2 4-5-1-2-4 2-3 4 1-1 2 4-2 7-1h3z" fill="#C08635"/>
<path transform="translate(830,719)" d="m0 0 1 2 4 1 6 2v-2h5l11 6 4 3-1 3-1-3h-2l-1 4-2-5-2-1-1 6 4 2 1 5-2 2-4-1v-3h-2v-2l-8-2-2 5-5 4-4-4-2-3v-3h-3v-3l4 1 1-5 5-1-1-1-12 1 1-5 2 1-1 2 4-1 1-3h2z" fill="#B97926"/>
<path transform="translate(1790,20)" d="m0 0h9l5 4 2 4v8l-4 6-3 2h-9l-6-4-2-5 1-9 5-5z" fill="#E7EBEC"/>
<path transform="translate(1568,196)" d="m0 0 3 1 1 6-6 7-14 9-15 7-14 4h-6l-3-5v-2l12-2 11-4 16-8 9-6z" fill="#252E31"/>
<path transform="translate(833,725)" d="m0 0 3 1-4 3-3-1v6l-5-2v3h3l6 11 1 4-3 1 1 3 12-3 8-1 3 3-2 3-10 1h-17l-8-1v-9l2-21z" fill="#BFBEBD"/>
<path transform="translate(258,843)" d="m0 0h46l4 3v5h-55l1-5z" fill="#E8E2EB"/>
<path transform="translate(1520,179)" d="m0 0 2 1-5 5-5 3h-2v2l-3 3-1 3 13-2 11-5 2 1v2l-16 7-4 1h-10l4 8 11-1 17-6 12-7 2 1-2 2 1 2-17 9-17 5h-10l-4-3v-13l2-5 8-7z" fill="#52100B"/>
<path transform="translate(329,316)" d="m0 0h21v20h-21z" fill="#747678"/>
<path transform="translate(1622,159)" d="m0 0 9 1-1 10-4 20-3 11-3 1-3-5-1-5v-9l3-21z" fill="#B87824"/>
<path transform="translate(1670,158)" d="m0 0 8 1 4 6-2 5-9 15-5 1-4 5-3-10 1-7 7-13-2-1z" fill="#BF8229"/>
<path transform="translate(1618,157)" d="m0 0h15v1l-11 2-2 2-3 21v20l-3 2 1 3-1 3-10-1 1-7 1-5 1-9 3-6 3-1 2-8v-4l-2 10h-4l3-13h-2v-2l-4-1 9 1 2 1z" fill="#651407"/>
<path transform="translate(1581,166)" d="m0 0h9l1 1 1 20v20h-5l-4-13-4-20-1-7z" fill="#F1C008"/>
<path transform="translate(796,749)" d="m0 0h5l1 3-9 7-15 3-24 4-7 1-4 1-7-3-2-4v-3h5l1 1h15l18-2 12-2 11-5z" fill="#530202"/>
<path transform="translate(1511,233)" d="m0 0h1v11l9 1 4 8-4 1h-10l1 5v7l17-4h3l4 5v2l-20 7-1 4-3-4-2-8-1-11v-15l1-8z" fill="#580402"/>
<path transform="translate(541,428)" d="m0 0h16l1 1v21l-7-2-6 1-5 1v-21z" fill="#409D97"/>
<path transform="translate(435,157)" d="m0 0h15l6 5v9l-4 4-3 1h-14z" fill="#FBFBFB"/>
<path transform="translate(864,721)" d="m0 0 5 2h4l3 14 4 14-5 2h-14v-3l-3-1 1-2 7-1 1-11-3-10-1-3z" fill="#F8F8F8"/>
<path transform="translate(1578,164)" d="m0 0h6l-3 3h-3l4 17 4 18v5l-5 1-4-11-3-17-5-8v-2l-7 1v-2z" fill="#5A0602"/>
<path transform="translate(1699,199)" d="m0 0h5l4 9-6 7-11 12-4 1-8-1-2-1 10-10 8-7 4-4h2l-1-2-4 4-2-1z" fill="#F1C008"/>
<path transform="translate(66,22)" d="m0 0 5 2 7 4 1 7-9 6-4 1-10-10z" fill="#F4C406"/>
<path transform="translate(861,754)" d="m0 0h6l-3 3-33 4 6 4 11 1h11l15-3-1 3-11 4-10 1-13-1-8-3-3-2-2 1v-3l-2-1v-5l7 1 12-2z" fill="#4D0606"/>
<path transform="translate(56,33)" d="m0 0 4 2 6 6v2l-21 12h-5l-2-4z" fill="#5C0803"/>
<path transform="translate(1558,412)" d="m0 0h6l-1 3h-3v2l10-1h8 2l3-1 1-2h3l-1 11-7 1h-3l-7-1-5 1-2-5-2 1-2 4h-2l1-11z" fill="#EBBF2B"/>
<path transform="translate(536,791)" d="m0 0 8 6h1l-1-5h2l4 6 1 4 6 4-2 1-2-1 1 7h-2l-1-1-1 5h-4v-4l-4-2-1-4 1-2-5 1-1-1-1-10z" fill="#A36020"/>
<path transform="translate(39,10)" d="m0 0h7l14 8 6 4-6 7-4 2-18-18z" fill="#038761"/>
<path transform="translate(1619,204)" d="m0 0 6 2 6 4 4 9v3h2l3 5 7 4v2l5 1h20v-2l10-5 7 3 5 1v2l-3 1-7-2-7 1-5 3-12 3-8-1-11-5-4-5-3-2-7-15-3-1v-2l-5-2z" fill="#E8DED0"/>
<path transform="translate(1542,275)" d="m0 0h1v7h2l1 12-8 1-1 9-6 1-6-8 2-4 14-9z" fill="#EDBF17"/>
<path transform="translate(1679,253)" d="m0 0 3 1-1 2-2 3-1 7h-6l-6 7 6 1 3 3-5 10-10-5v-4l3-7 4-4 3-4h2l2-5 3-1z" fill="#F2C107"/>
<path transform="translate(1570,252)" d="m0 0 5 1 9 1 5 2 3-4 4 1 2 3 5-2 4 1v-3l7 1 8 1 1 4-4-1-6 2-4 2-3-4-4 2-4 1-5-3-3 2-5-1h-4l-4 3-4-3-9-1 4-4z" fill="#BF7F28"/>
<path transform="translate(152,28)" d="m0 0h10v17l-2 3-8 1-3-2v-3l8 1 1-3h-7l-3-3v-7z" fill="#5F7365"/>
<path transform="translate(1557,168)" d="m0 0 5 2h7l6 10 3 17 3 11 4-1 2-2v2l15-1v4l-23 1-4-9-3-6 1-11-3-9h-7z" fill="#C6A271"/>
<path transform="translate(745,841)" d="m0 0h7l8 5 3 1v2l11-4 4-4h7l-2 4v6h-34l-1-8-3-1z" fill="#A96924"/>
<path transform="translate(1538,137)" d="m0 0 3 1-1 45-4 2-1-28v-19z" fill="#C08129"/>
<path transform="translate(1119,697)" d="m0 0h13l5 6-2 5-3 3h-10l-2-3-3-1v-4l2-2z" fill="#671B0A"/>
<path transform="translate(433,671)" d="m0 0h10l3 4v8l-3 3h-10l-3-3v-9z" fill="#65ADB3"/>
<path transform="translate(1121,632)" d="m0 0h9l5 5v8l-3 3-1-6 1-4h-2v12l-3 1v-12h-2v12l-3-1v-13l-3 2 1 9-3-1-1-8 3-5z" fill="#C88D25"/>
<path transform="translate(926,632)" d="m0 0h9l5 5v8l-3 3-1-6 1-4h-2v12l-3 1v-12h-2v12l-3-1v-13l-3 2 1 9-3-1-1-8 3-5z" fill="#C88D25"/>
<path transform="translate(731,632)" d="m0 0h9l5 5v8l-3 3-1-6 1-4h-2v12l-3 1v-12h-2v12l-3-1v-13l-3 2 1 9-3-1-1-8 3-5z" fill="#C88D25"/>
<path transform="translate(536,632)" d="m0 0h9l5 5v8l-3 3-1-6 1-4h-2v12l-3 1v-12h-2v12l-3-1v-13l-3 2 1 9-3-1-1-8 3-5z" fill="#C88D25"/>
<path transform="translate(792,813)" d="m0 0h11l3 4v7l-3 4h-10l-3-3v-9z" fill="#63ACB2"/>
<path transform="translate(1729,21)" d="m0 0 7 1 3 5v8l5 5v2l-4-2-3-3h-7l-6-3-1-7 3-5z" fill="#E7EEEE"/>
<path transform="translate(101,20)" d="m0 0 10 1v4l-10-1-3 4v6l5 5 6-2 2-4h-7v-3h11v7l-5 5h-10l-5-3-2-4v-8l5-6z" fill="#4A4B3B"/>
<path transform="translate(1697,179)" d="m0 0h5l2 4v3l-1 6-8 8-7-6-1-5 5-6 5-2z" fill="#C48623"/>
<path transform="translate(879,813)" d="m0 0h11l2 3v9l-3 3h-9l-3-2v-11z" fill="#67ADB4"/>
<path transform="translate(331,317)" d="m0 0h18v18h-18v-7l2 3 6 1v-6l7-1-3-3-1 2h-2l-1-3h-7l-1 2z" fill="#F6F7F7"/>
<path transform="translate(820,743)" d="m0 0h3l2 5 6 2 1 4 12-3 8-1 3 3-2 3-10 1h-17l-7-2v-7z" fill="#FAFAFA"/>
<path transform="translate(843,722)" d="m0 0 4 1 10 5 4 3-1 3-1-3h-2l-1 4-2-5-2-1-1 6 4 2 1 5-2 2-4-1v-3h-2v-2l-9-2v-3h3l-1-6 4-1-3-3z" fill="#560402"/>
<path transform="translate(1537,304)" d="m0 0 9 2 2 8 4 2 5 2 14 2-1 6-3 3-10-4 1-4-6-1-6-2-7-6 2-4-4-2z" fill="#E6BF48"/>
<path transform="translate(1566,295)" d="m0 0 2 3 2-2h6v4l4 1-2 4-4-2-3-4-3 3-10-2-2 4-4-1-1-2-4-1-2 4-5-1-2-4 2-3 4 1-1 2 4-2 7-1h3z" fill="#C28838"/>
<path transform="translate(1665,297)" d="m0 0 1 3-2 1-3 5-8 7-3 4-3 1-1 2h-3v2h-3l-1 3-8 2v2h-3l1-3 2-1v-5l6-3h3 4l4-3h2l-1-4-2-3 5-5h3l3 2z" fill="#5D0A03"/>
<path transform="translate(823,697)" d="m0 0 8 1 2 3 3 1v2h-3v9l5 1 1 7-8-6-6-5-7-6-2-5z" fill="#5DA5A9"/>
<path transform="translate(1339,654)" d="m0 0h11l3 3v8l-3 3h-6l-2-1v7h-3z" fill="#212528"/>
<path transform="translate(1392,654)" d="m0 0h4 7l3 5-1 7-3 2h-6l-1 6h-3z" fill="#252C30"/>
<path transform="translate(1180,697)" d="m0 0h14v2h-2v2l4 1v7l-3 1-3-3 1-1h-3l-1 2h2l2 4h-6l-2-6 3-3h-3l-1 3h-6v-6z" fill="#56140D"/>
<path transform="translate(790,841)" d="m0 0h13l2 1 1 8-1 1h-18l-2-1v-5z" fill="#BC8845"/>
<path transform="translate(1530,177)" d="m0 0h4l-1 4-14 7-6 4 9-2 9-4 3 1-5 4-10 4-5 1h-8l1-5 3-1v-2l14-8z" fill="#62A7AD"/>
<path transform="translate(439,426)" d="m0 0 4 2v5l-1 1h-6l-6 4h-2l3 3 5 3h6l1 1v5l-4 2-3-2-1-3-7-4h-5l-2-2 1-5 4-1 6-2 3-2 2-4z" fill="#198F75"/>
<path transform="translate(1511,254)" d="m0 0h15l5 7-2 2-12 3h-5z" fill="#F3C306"/>
<path transform="translate(729,841)" d="m0 0h12l4 2 1 8h-20v-6z" fill="#71240D"/>
<path transform="translate(1631,412)" d="m0 0 2 1 1 3h9v4l-1 5h-9l-1-2-1 2h-6l-1-5-2 5h-2l1-9h7z" fill="#EBBF34"/>
<path transform="translate(1651,181)" d="m0 0h1l1 6-11 28-2 5-4-1 3-10 7-21 3-6z" fill="#AF6C22"/>
<path transform="translate(543,430)" d="m0 0h12v16l-8-1-4 1z" fill="#FDFDFD"/>
<path transform="translate(1511,229)" d="m0 0 3 1 3 5v3h2l6 10 10 15 7 9v2l-4-2-4-6-8-11-5-1 3-2-3-5v-2h-9l-1-1v-10l-1-3z" fill="#C69858"/>
<path transform="translate(714,186)" d="m0 0h10v9l-5 4h-8l-3-3v-6l3-3z" fill="#F8F8F8"/>
<path transform="translate(1409,654)" d="m0 0h4 6l3 3v8l-3 3h-6l-1-1-1 7h-2z" fill="#212427"/>
<path transform="translate(1323,654)" d="m0 0h4 6l3 3v8l-3 3h-6l-1-1-1 7h-2z" fill="#212427"/>
<path transform="translate(136,28)" d="m0 0h7l4 4v6l-4 4h-8l-3-3v-7z" fill="#4D4F3F"/>
<path transform="translate(120,28)" d="m0 0h7l4 4v6l-4 4h-8l-3-4v-6z" fill="#4E4F3F"/>
<path transform="translate(1121,740)" d="m0 0 10 4 1 4 9 4 1 4v2l2 1 1-2 2 2v3h14l-4 3h-6l-2-1v2h2l1 3-5-1v-3l-3-1v-2l-6-2-4-6-7-5v-2h-2l-4-5z" fill="#410D0E"/>
<path transform="translate(598,186)" d="m0 0h11v9l-5 4h-8l-3-4 1-6z" fill="#F9F9F9"/>
<path transform="translate(1610,187)" d="m0 0h2l2 5v3h2l1 8-3 2 1 3-1 3-10-1 1-7 3-10 2-1-1-2z" fill="#BD8A4C"/>
<path transform="translate(1683,196)" d="m0 0h2l-2 7-6 7-1 2h-2l-2 5-9 10-3 5h-4l2-5 8-10 10-14 5-6z" fill="#EBBA13"/>
<path transform="translate(1561,282)" d="m0 0 7 1v2l5 2 2 4h-19l-3 1-4 1v-5l5-4z" fill="#C08129"/>
<path transform="translate(1428,654)" d="m0 0h7l4 4v6l-4 4h-7l-3-3v-8z" fill="#222629"/>
<path transform="translate(1623,283)" d="m0 0h9l6 3 1 1v5l-10-1h-17l1-4z" fill="#C08129"/>
<path transform="translate(1571,298)" d="m0 0 4 5h4l3-5 4 1 5 1 1-2 4 1 3 1 5-2 4 5 3 2v2l-7-2-1-1h-19l-5 3-5-1-9-3 5-4z" fill="#550101"/>
<path transform="translate(1511,233)" d="m0 0h1v11l9 1 4 8-4 1h-10l1 5v7l-2-1-1-8v-15l1-8z" fill="#560101"/>
<path transform="translate(1679,174)" d="m0 0 1 2-1 2 4 1 1 5 2 3v3h-2l-2 4-4 6h-1l-2-9-3-2 1-4 5-6-1-2z" fill="#B57627"/>
<path transform="translate(191,22)" d="m0 0 11 1 3 5-2 5-1 1h-8v8h-3z" fill="#474131"/>
<path transform="translate(264,432)" d="m0 0h3v2h2v2l6-2 3 1 1 2v8h-14l-1-1v-7h-2v-2h2z" fill="#3A9B90"/>
<path transform="translate(1645,146)" d="m0 0h7l1 4h2l1 6-4 13-3 3-2-6-1-5 1-8v-2z" fill="#C08129"/>
<path transform="translate(1643,151)" d="m0 0 3 3v7l-2 2 1 5-7-1v8l-6-3v-9l1-3 8-1v-3z" fill="#F7C804"/>
<path transform="translate(1309,649)" d="m0 0 5 1 6 18h-3l-1-5-9 1-2 4-3-1z" fill="#212427"/>
<path transform="translate(1664,160)" d="m0 0 3 1-2 6-5 9 1 7 2 7 3-2-2 4-10 18-7 14-2-1 12-27 2-5-1-9-3-2v-2h2l2-5 5-9z" fill="#560101"/>
<path transform="translate(488,171)" d="m0 0h8l4 4 1 6h-19l2-7z" fill="#F6F8F8"/>
<path transform="translate(1580,320)" d="m0 0h11v12l-1 1h-8l-4-1 1-8z" fill="#EDBB0B"/>
<path transform="translate(331,171)" d="m0 0h8l4 4v6h-18l2-7z" fill="#F8F8F9"/>
<path transform="translate(203,171)" d="m0 0h8l4 4 1 6h-18l1-6z" fill="#F9F9F9"/>
<path transform="translate(1652,289)" d="m0 0 6 1 7 5-2 5-6 5-4-3h-1l-2-7-2-3z" fill="#F0BF08"/>
<path transform="translate(1599,320)" d="m0 0h11l2 8v4l-5 1h-7z" fill="#EEBC0A"/>
<path transform="translate(730,697)" d="m0 0h21l-1 3-7 1h-3l-5 5-9 2v-7z" fill="#BAB6AD"/>
<path transform="translate(1162,637)" d="m0 0h2l1 3 8-1 1-2h2l1 2 4-1 1 4-1-2-3 3 10 1v-3l-3-1h5l1 5h-10l-1 3-2-1 1-2h-2v-2h-2v2h-2l-4 4-1-4h-2-8v-2h4z" fill="#95A4A6"/>
<path transform="translate(214,28)" d="m0 0h9l2 2v12h-11l-2-2 1-6 8-2-4-1-3 1z" fill="#8E9688"/>
<path transform="translate(1191,759)" d="m0 0h5v13l-7 4-5-1v-3l1-5 3-4h2z" fill="#B37124"/>
<path transform="translate(1680,255)" d="m0 0h1v8l-2 9-4 12-2-2 1-6-8-3 2-4 5-4 5 1v-7z" fill="#5E0B04"/>
<path transform="translate(1669,155)" d="m0 0 10 2 6 10-4 7-3 3 1 3-5 5-1 4 3 2-1 4-5-6-5-1 1-3h5l2-5 8-13-2-5-1-2-6-2-1 2-3-1z" fill="#560101"/>
<path transform="translate(1657,158)" d="m0 0 8 4-2 6-6 10-6-1 5-18z" fill="#C88C25"/>
<path transform="translate(1790,20)" d="m0 0h9l5 4 2 4v8l-4 6-3 2h-9l-6-4-2-5 1-9 5-5zm0 2-5 4-1 2v8l6 6h8l6-5 1-7-3-5-4-3z" fill="#242A2D"/>
<path transform="translate(1573,205)" d="m0 0 5 1 2 7-15 6-5 3-4-2 1-2 7-4 6-5z" fill="#480809"/>
<path transform="translate(1603,412)" d="m0 0h5l2 4h6v2l-2 1-2 6h-2l-1-3-3 3h-5l-1-3 2-9z" fill="#ECC443"/>
<path transform="translate(364,809)" d="m0 0 9 1 13-1 3 2 2-1v5h-6-4-5-4l-6-1-7 2v-5z" fill="#C0C0C0"/>
<path transform="translate(832,703)" d="m0 0h6l2 3v3l5 5 1 3-1 4-4 1v-2h-2l-2-5-1-2h-3l-1-2z" fill="#560101"/>
<path transform="translate(1172,701)" d="m0 0h3 1v5l6-1 1-2h3l-1 3h-2l2 6 5-1-1-3h-2l1-3h4l-1 3 5 1v2l-4 2 1 2h-14l-1-3 3-1v-2l-1 2h-4l-1-5-3-1z" fill="#C08C43"/>
<path transform="translate(383,346)" d="m0 0h5l4 4-1 7-3 2h-5l-3-2v-9z" fill="#98ACAF"/>
<path transform="translate(172,28)" d="m0 0h7l3 3v3l-8 3v3h4v-2l4 1-2 3h-8l-3-3v-8z" fill="#585A4E"/>
<path transform="translate(818,716)" d="m0 0h6l2 1v2h-4l4 1 4-1v2h-2l-1 4h-4l-1-1-1 2h-2v2l-5 1-1-1v-9z" fill="#460A0A"/>
<path transform="translate(1610,321)" d="m0 0h9l2 5v3l7-2v3l-9 3h-8z" fill="#5A0602"/>
<path transform="translate(1546,194)" d="m0 0 2 1-2 2 1 2-17 9-10 3h-3v-4l17-6z" fill="#3E0E0F"/>
<path transform="translate(1642,144)" d="m0 0 12 1 4 7v5l6 2v2l-5-1-4-1v-9h-2l-1-3h-6l3 6h-2v8h-1l-2-9-3 4-2 1 1-5z" fill="#6C240E"/>
<path transform="translate(226,28)" d="m0 0 5 1 3 6 3-7h4l-3 9-5 11-4-1 2-7z" fill="#5A553D"/>
<path transform="translate(421,840)" d="m0 0h6l5 2 9-1h6v6l-13-1h-2-4v-3h-2v3h-5z" fill="#99A0A1"/>
<path transform="translate(151,504)" d="m0 0h8l1 1v12h-9z" fill="#596C6F"/>
<path transform="translate(1619,204)" d="m0 0 6 2 6 4 4 9v3h2l3 5 7 4 1 3-2 1-5-2-4-5-3-2-7-15-3-1v-2l-5-2z" fill="#E5D9CA"/>
<path transform="translate(967,658)" d="m0 0h10l1 4 1 1v5l-5-1v3h-3l-2-5h-1l-4-1v-4z" fill="#64200F"/>
<path transform="translate(381,69)" d="m0 0h38v3h-38z" fill="#058863"/>
<path transform="translate(407,637)" d="m0 0h1l1 5 5-5 4 1 1 4 1-2 5-1v4h2v2h-25l1-4h3z" fill="#90A2A4"/>
<path transform="translate(1645,166)" d="m0 0 2 4-3 10-3 1-6-5-3-1-1 3 1-5h4l1 1 1-7 7 1z" fill="#BC7C27"/>
<path transform="translate(536,791)" d="m0 0 8 6h1l-1-5h2l4 6-1 4-2 1-5-2v2h-4l-1 3-1-1-1-10z" fill="#212023"/>
<path transform="translate(778,841)" d="m0 0h7l-2 4v6h-17l-2-2 12-5z" fill="#B16F23"/>
<path transform="translate(539,804)" d="m0 0h6l-3 1 1 6 2 5-2 3 11-2 1 2-6 2h-8l-4-1v-8l1-7z" fill="#CDCBC9"/>
<path transform="translate(758,798)" d="m0 0 4 4 4-4h6v4h-6l-1 1h7v2h-20l-1-1v-5h6z" fill="#85A0A3"/>
<path transform="translate(172,252)" d="m0 0h2v15h-8l-2-2v-6l3-3 5 1z" fill="#229279"/>
<path transform="translate(840,736)" d="m0 0 6 1 2 1v2h2l-1 3-4-3-5 1-2 6h-2l1 2 5 2-1 2-9 2-1-4 2-1-1-4-1-2 4-1z" fill="#C18228"/>
<path transform="translate(457,636)" d="m0 0h2l-1 9-1-2-3 2h-15l2-7 2 2 1-3h2v5l4-2 1-3 4 1 1 1z" fill="#727F82"/>
<path transform="translate(1849,24)" d="m0 0h3l1 7 1-2h5l-2 4 2 8-5-1-1-1-1 2h-3z" fill="#C4CDD0"/>
<path transform="translate(847,785)" d="m0 0h4v6h5l1-4h3l-1 5-2 1-8-1h-2-9l-1 3h-2v-4h2l-2-2v-3h8l1 4h2z" fill="#6D7D80"/>
<path transform="translate(1056,668)" d="m0 0 2 3 8-1-1 5h-9-2-7v-2h2v-2h-3v5h-3l-1-1v-5l5-1h4v4h2v-4z" fill="#A4B5B7"/>
<path transform="translate(152,253)" d="m0 0h2v4l4-1 4 3v6l-2 2h-8z" fill="#2B9685"/>
<path transform="translate(388,777)" d="m0 0 3 1h3l10 1 1 4-5 1h-4-14l-1-3 1-2h6z" fill="#BBBFC0"/>
<path transform="translate(1552,254)" d="m0 0 6 1v-1h5l-1 6-3 2h-5l-5-3v2l-3 1-3-2v-4l4-1v4z" fill="#BF822D"/>
<path transform="translate(1620,164)" d="m0 0h1l1 12-3 20-2-1-1-3v-9l2-16h2z" fill="#F1C108"/>
<path transform="translate(1729,21)" d="m0 0 7 1 3 5v8l5 5v2l-4-2-3-3h-7l-6-3-1-7 3-5zm-1 2-3 4 1 6 3 2 6-1 2-3v-5l-3-3z" fill="#252D30"/>
<path transform="translate(230,252)" d="m0 0 6 1v3h-7l-1 1v6l1 1h5l2-3h-5l1-2h7l-1 6-2 2h-8l-4-5 1-7z" fill="#1D9178"/>
<path transform="translate(1131,785)" d="m0 0 3 1 1 1 7-1v7l-1 2-3-1-1-3-1 3-3-1-11-1v-5h3 6z" fill="#899799"/>
<path transform="translate(741,785)" d="m0 0 3 1 1 1 7-1v7l-1 2-3-1-1-3-1 3-3-1-11-1v-5h3 6z" fill="#899799"/>
<path transform="translate(1591,260)" d="m0 0 15 1 1 2-10 3h-7l-9-3v-2z" fill="#E0AA13"/>
<path transform="translate(256,256)" d="m0 0 4 1 4-1 3 3v8h-3v-8l-3 1-1 7h-2l-1-7-3-1v8h-3v-10z" fill="#1B9076"/>
<path transform="translate(1584,413)" d="m0 0h3l-1 11-7 1h-3l-4-1 2-1-1-5h3v3h2l1-4 4-2z" fill="#E0AE25"/>
<path transform="translate(152,28)" d="m0 0 9 1v8l-2 1-2-6h-4v8l5 1v1h-7l-3-3v-7z" fill="#53513E"/>
<path transform="translate(924,691)" d="m0 0 6 2 1 4 4 1 5 3-1 4 3-1 1 3h9l-1 2h-6v2l2 1h-5l-1-5-5-2-5-5-7-8z" fill="#430F0E"/>
<path transform="translate(888,697)" d="m0 0h2l2 16-1 3-3 1h-17v-1l12-1 3-5z" fill="#E8E8E8"/>
<path transform="translate(143,252)" d="m0 0 3 2 4 11v2h-3v-3h-7v3h-3l3-10z" fill="#24937E"/>
<path transform="translate(563,24)" d="m0 0h6l2 3v9l-2 1h-6z" fill="#879EA1"/>
<path transform="translate(1155,708)" d="m0 0 5 2-3 2-9 4-6 7h-2v3l-7-1 1-3 18-12z" fill="#eee"/>
<path transform="translate(996,667)" d="m0 0 2 3 7-1 2-1-1 4-3 5-4-2-10 2-1 2h-3l-2-6h2l3 3 1-3h4l1-3 1 1z" fill="#90A7AA"/>
<path transform="translate(1626,254)" d="m0 0h2v2l4-2 5 1 2 4h3l-2-4 4 2-1 4-4 1-4-3-3 3h-5l-2-4z" fill="#C08533"/>
<path transform="translate(635,696)" d="m0 0h7l3 3-1 3h-2l1 4-5-1-2-1v2h-4l2-9z" fill="#38271D"/>
<path transform="translate(402,28)" d="m0 0h8l2 3-1 5-1 1h-5v4h-3z" fill="#79BBB4"/>
<path transform="translate(620,712)" d="m0 0 5 1 2 9h-15l6-8z" fill="#31221E"/>
<path transform="translate(1679,253)" d="m0 0 3 1-1 2-2 3-1 7h-6l-6 7-3 3-2-1 3-5 3-3 3-4h2l2-5 3-1z" fill="#D3B16B"/>
<path transform="translate(1631,180)" d="m0 0 5 1-6 18-2 7-2-1 1-10z" fill="#BB7B27"/>
<path transform="translate(1648,314)" d="m0 0m-1 1m-9 1 5 2 4-2-1 4h-3v2h-3l-1 3-8 2v2h-3l1-3 2-1v-5l6-3z" fill="#600E06"/>
<path transform="translate(1659,276)" d="m0 0h2l-2 5h-2l-2 7-5 4v2l2 2v7l-3 4h-7l-1 2v-3l7-2 2-8-3-1 1-6 3-1 2-5z" fill="#CDAC71"/>
<path transform="translate(813,701)" d="m0 0 2 2v5l-1 1-1 7h5l-4 3-1 52h-1v-69z" fill="#BFB09C"/>
<path transform="translate(1563,260)" d="m0 0h9l2 1v2l-23 5-4-1 1-3 6-1 7-1z" fill="#D59C1A"/>
<path transform="translate(861,754)" d="m0 0h6l-3 3-22 3h-12l1-2 12-2z" fill="#530202"/>
<path transform="translate(842,739)" d="m0 0 4 1 3 2-2 6-4-1 1 1 1 2-4 1-5-2v-2l2-1 2-6z" fill="#530202"/>
<path transform="translate(750,707)" d="m0 0 3 1-8 6-3 4-1-3-5 2-3 1-1 2h-6v-4l23-8z" fill="#221F22"/>
<path transform="translate(851,750)" d="m0 0 4 3-2 3-10 1h-9v-3l10-3z" fill="#D6D6D6"/>
<path transform="translate(922,659)" d="m0 0h9v3l3 3h-2l-1 3h-7l-3-2v-6z" fill="#671B0A"/>
<path transform="translate(605,431)" d="m0 0h2v13h-8l-1-1v-7l1-1h6z" fill="#63B1A5"/>
<path transform="translate(594,431)" d="m0 0h2v13h-8l-1-1v-7l1-1h6z" fill="#63B1A5"/>
<path transform="translate(1560,320)" d="m0 0h11l-1 6-3 3-10-4 1-4z" fill="#ECBB17"/>
<path transform="translate(610,696)" d="m0 0h7l3 2-1 4-3 2h-5v2h-3l1-9z" fill="#3A281C"/>
<path transform="translate(1543,354)" d="m0 0 5 1 1 7-7 5h-2v-7l2-5z" fill="#FDFDFD"/>
<path transform="translate(374,747)" d="m0 0h8l2 1 5-1 6 1v4h-21z" fill="#BCBEBE"/>
<path transform="translate(1376,654)" d="m0 0h3v11h6l1-11h2v14h-4-6l-2-3z" fill="#202225"/>
<path transform="translate(140,500)" d="m0 0h19v2h-17v12h7v2h-11v-2h2z" fill="#395458"/>
<path transform="translate(1610,354)" d="m0 0 5 1 1 7-7 5h-2v-8z" fill="#FDFDFD"/>
<path transform="translate(164,21)" d="m0 0h4v21h-4z" fill="#565A47"/>
<path transform="translate(360,777)" d="m0 0h3l1 2h11l3-2v7l-3-1-3 1-6-1-6 1-1-1v-5z" fill="#C0C1C2"/>
<path transform="translate(833,725)" d="m0 0 3 1-4 3-3-1v6l-5-2v3l2 1-5 1-1-11z" fill="#ECECEC"/>
<path transform="translate(1589,295)" d="m0 0h8l5 2-1 3-4 1-5-3-1 3-5-1-4-2-1 4-2-2 3-4z" fill="#BF8330"/>
<path transform="translate(1615,260)" d="m0 0 10 1 2 2h10l2 1v4l-11-2-15-3v-2z" fill="#D0961D"/>
<path transform="translate(392,28)" d="m0 0h7l2 2v5l-2 2h-5v4h-2z" fill="#5EAFA1"/>
<path transform="translate(677,24)" d="m0 0h2v13h-7l-2-2v-5l2-2h5z" fill="#527F84"/>
<path transform="translate(193,708)" d="m0 0h4l9 2-1 4h-19v-4h7z" fill="#B4BCBC"/>
<path transform="translate(1364,654)" d="m0 0h7l2 3h-7l-1 2 7 2 1 5-2 2h-7l-2-4 8 1 1-2-7-2-2-2 1-4z" fill="#22272A"/>
<path transform="translate(224,505)" d="m0 0h6l3 2v5l-2 2h-5v4h-2z" fill="#70969A"/>
<path transform="translate(417,501)" d="m0 0h1v13h-7l-2-2v-5l2-2h5z" fill="#71999D"/>
<path transform="translate(313,501)" d="m0 0 1 4h5l2 2v5l-2 2h-7v-12z" fill="#738F92"/>
<path transform="translate(1594,412)" d="m0 0 3 1v2h-3l1 5 4-1-2 7-7-1-2-4 4-8z" fill="#E3AF14"/>
<path transform="translate(1642,307)" d="m0 0h5l4 5-5 5-5 2-2-4 2-3z" fill="#ECBA0B"/>
<path transform="translate(558,802)" d="m0 0h5l3 12v4h-9v-3l2-1 1-4z" fill="#F4F4F4"/>
<path transform="translate(209,252)" d="m0 0 2 1v4l4-1 3 3v8h-3v-8h-4v8h-3v-14z" fill="#389A91"/>
<path transform="translate(272,256)" d="m0 0 5 1 1 2v8h-8l-2-4 1-2 6-2h-6z" fill="#2D9685"/>
<path transform="translate(1187,759)" d="m0 0 4 1-1 3-5 5-1 4 3 1-2 1 4 2h-7l-1-5v-8z" fill="#C1C1C1"/>
<path transform="translate(643,712)" d="m0 0h10v2h-6v2h5v2h-6v2h6v2h-11z" fill="#271C1F"/>
<path transform="translate(146,618)" d="m0 0 4 1 5-1 4 2-2 5h-11l-2-5z" fill="#FAFAFA"/>
<path transform="translate(606,711)" d="m0 0h5l1 3h-6v2l6 1v4l-2 1h-10l1-2 6-1-5-2 1-5z" fill="#281C1E"/>
<path transform="translate(165,708)" d="m0 0h3l-1 4h2v-2l12-1h3l-1 5h-19v-5z" fill="#B2BCBC"/>
<path transform="translate(243,256)" d="m0 0 5 1 1 1v9h-8l-1-5 5-2-1-1-4-1z" fill="#2E9787"/>
<path transform="translate(200,256)" d="m0 0 5 1 1 1v9h-8l-1-5 5-2-1-1-4-1z" fill="#2E9787"/>
<path transform="translate(1511,229)" d="m0 0 3 1 4 8 1 6h-8v-10l-1-3z" fill="#E3B326"/>
<path transform="translate(179,256)" d="m0 0 5 1 1 1v9h-8l-1-5 3-2 4-1h-7z" fill="#20927A"/>
<path transform="translate(1148,799)" d="m0 0h11l1 1v5l-10 1-3-1v-5z" fill="#B9CACB"/>
<path transform="translate(872,763)" d="m0 0h2l-1 3-11 4-10 1v-2h-4l1-3h10z" fill="#530202"/>
<path transform="translate(541,430)" d="m0 0h1v17l5-3 6 1 3 2v-16h1v18l-10-1-6 1z" fill="#0E8B6B"/>
<path transform="translate(1558,220)" d="m0 0m-2 1h2l-1 4-5 5-4 8-3 11-2-3 2-11 7-10z" fill="#3D0F10"/>
<path transform="translate(643,711)" d="m0 0h11l2 1h4l-2 6h-3l-3 4v-2h-6v-2h6v-2h-5v-2h6v-2h-10z" fill="#A4741B"/>
<path transform="translate(579,431)" d="m0 0 3 1 4 10v2h-3v-3h-6v3l-3-1z" fill="#21927C"/>
<path transform="translate(273,434)" d="m0 0 5 1 1 2v8h-8l-1-5 5-2-2-1-3-1z" fill="#DDEDEB"/>
<path transform="translate(1619,321)" d="m0 0h12l1 4-9 4h-2z" fill="#F0BF08"/>
<path transform="translate(1671,161)" d="m0 0 1 4-10 16-2-1v-6l6-7 1-3z" fill="#F5C505"/>
<path transform="translate(383,24)" d="m0 0h3l4 11v2l-3-1v-2l-5 1-1 2h-2l1-6z" fill="#5CADA3"/>
<path transform="translate(152,737)" d="m0 0 4 2 1 8-7 1-2-1v-5z" fill="#BFC2C2"/>
<path transform="translate(1162,719)" d="m0 0 2 1-1 4-2 4-11 2-6-1-3-3 2-2v2l4-1h13z" fill="#560101"/>
<path transform="translate(596,696)" d="m0 0h3v7l3-1 2-6h3l-1 7-3 3h-7l-2-4z" fill="#251D20"/>
<path transform="translate(1030,667)" d="m0 0h2l1 3h2l1-2h2l1 5v3h-11l-3 1-2-1 1-4 1 3 2-1 2-4h1zm9 3h2v3h-2z" fill="#91A7AA"/>
<path transform="translate(1691,185)" d="m0 0 4 1 2 5-5 6-5-5 1-4z" fill="#F3C306"/>
<path transform="translate(634,435)" d="m0 0 3 1v3h2l1-4 3 1v3h2l1-4h2l-3 9-3-1v-3h-2l-1 4-3-1z" fill="#2D9686"/>
<path transform="translate(622,435)" d="m0 0h5l2 2v5l-2 2h-6l-1-1v-7z" fill="#6FB7AC"/>
<path transform="translate(398,808)" d="m0 0 5 2h6l-1 4-6 1-10-1v-4h5z" fill="#BBBFBF"/>
<path transform="translate(1430,656)" d="m0 0 5 1 1 1v6l-2 2-5-1-2-2 1-5z" fill="#EFF3F3"/>
<path transform="translate(1397,656)" d="m0 0 5 1 1 1v6l-3 2-4-1-2-2 1-5z" fill="#ECF0F1"/>
<path transform="translate(480,28)" d="m0 0 6 1 1 1v5l-2 2-7-1v-7z" fill="#506D71"/>
<path transform="translate(623,696)" d="m0 0h9v2h-6v2h4v2h-5v2h5v2h-9l1-9z" fill="#202023"/>
<path transform="translate(1414,656)" d="m0 0 5 1 1 6-3 3-5-1-1-6z" fill="#EFF0F1"/>
<path transform="translate(1344,656)" d="m0 0 5 1 2 2-1 5-2 2-5-1-1-7z" fill="#F0F2F2"/>
<path transform="translate(1328,656)" d="m0 0 5 1 1 6-3 3-5-1-1-6z" fill="#EFF0F1"/>
<path transform="translate(349,505)" d="m0 0h5l2 2v5l-2 2h-5l-2-2v-5z" fill="#67969B"/>
<path transform="translate(235,505)" d="m0 0h6l2 1v6l-2 2h-4l-2 4z" fill="#D1D7D8"/>
<path transform="translate(468,431)" d="m0 0 3 1v3h5l1 2v7h-3v-7h-3v7h-3z" fill="#389A8E"/>
<path transform="translate(586,696)" d="m0 0h7l-1 3h-4l4 2-1 5h-9v-2h6v-2l-5-1 1-4z" fill="#2A1A1D"/>
<path transform="translate(380,505)" d="m0 0 6 1v7l-7 1-2-3 1-5z" fill="#D1D7D8"/>
<path transform="translate(1171,728)" d="m0 0v3h-2v3h-8v2l-3 1-4-3v-2l9-1v-2z" fill="#4C0607"/>
<path transform="translate(1455,650)" d="m0 0h2v4h4v3h-4l1 7 3 1v3h-5l-1-1-1-10-2-1v-2h3z" fill="#242A2E"/>
<path transform="translate(388,636)" d="m0 0h2l1 6 2-3 1 3 1-3h2l-1 7-14-1-1-5 2 2h4z" fill="#8A9395"/>
<path transform="translate(429,441)" d="m0 0 9 3 5 1v5l-4 2-3-2-1-3-7-4z" fill="#1A8F75"/>
<path transform="translate(334,320)" d="m0 0h5l1 4h2l1-3 4 4-3 1-1 2v-2l-3 1-1 5h-6l1-3 3 1v-3l-2-2h2v-4l-4 2z" fill="#273236"/>
<path transform="translate(1573,205)" d="m0 0 2 1 1 5-12 6h-2v2l-6 2 1-3 7-4 6-5z" fill="#539BA2"/>
<path transform="translate(1643,151)" d="m0 0 3 3v7l-4 2-1-1-7-1v8l-2 3v-9l1-3 8-1v-3z" fill="#BF822C"/>
<path transform="translate(344,777)" d="m0 0h7l1 6-2 2h-6l-1-1v-6z" fill="#E4E2E5"/>
<path transform="translate(165,739)" d="m0 0h38l-1 4v-3h-2l1 4h-3l1-4h-6l-1 3v-3h-10l2 4h-3v-4h-2v4h-2l1-4h-13z" fill="#FDFDFD"/>
<path transform="translate(1669,155)" d="m0 0 10 2 6 10-4 7-2-4 2-5-3-5-6-2-1 2-3-1z" fill="#621307"/>
<path transform="translate(150,707)" d="m0 0h5l2 2v5l-1 1h-7l-1-1v-5z" fill="#FBFBFB"/>
<path transform="translate(1586,205)" d="m0 0 1 2 15-1v4l-23 1v-2l6-2z" fill="#C29D68"/>
<path transform="translate(1574,192)" d="m0 0 3 1 4 13v2l3 1-6 1-3-8-3-6z" fill="#D9A939"/>
<path transform="translate(730,697)" d="m0 0h5l1 4-5 4-5 1 1-7z" fill="#C08129"/>
<path transform="translate(663,431)" d="m0 0h2v4h5l1 2v7h-2l-1-6-3-1v7h-3v-12z" fill="#33988B"/>
<path transform="translate(1664,160)" d="m0 0 3 1-2 6-5 9 1 7 1 9-2-1-2-9-3-2v-2h2l2-5 5-9z" fill="#570301"/>
<path transform="translate(587,28)" d="m0 0 5 1 1 1v6l-6 1-2-1v-7z" fill="#929C9E"/>
<path transform="translate(576,28)" d="m0 0 5 1 1 1v6l-6 1-2-1v-7z" fill="#929C9E"/>
<path transform="translate(1162,637)" d="m0 0h2l1 3 7-1-3 4 3-1v5l-4 2v-4h-2-8v-2h4z" fill="#5E7174"/>
<path transform="translate(496,435)" d="m0 0h6l2 5h-7v2l6-1-1 3h-6l-2-5z" fill="#3F9F91"/>
<path transform="translate(479,435)" d="m0 0h6l1 1v8h-7l-1-5 2-1-2-2z" fill="#49A596"/>
<path transform="translate(1640,308)" d="m0 0 2 1-1 5-7 6-7 1-16-1v-1l17-1 9-2 2-6z" fill="#C49655"/>
<path transform="translate(1606,164)" d="m0 0 9 1 2 1-1 4-2 4-2 7-3-1 3-13h-2v-2z" fill="#7A3016"/>
<path transform="translate(254,434)" d="m0 0 6 1v2l-4 1 5 3-2 4h-6l-1-3 6 1v-2l-6-1v-5z" fill="#F1F5F5"/>
<path transform="translate(235,430)" d="m0 0h4v15h-4z" fill="#A5CED2"/>
<path transform="translate(1610,416)" d="m0 0h6v2l-2 1-2 6h-2l-1-3-3 3h-5l2-2v-5l2 3z" fill="#D59C1A"/>
<path transform="translate(1621,416)" d="m0 0h7l1 8 2 1h-6l-1-5-2 5h-2z" fill="#D79F19"/>
<path transform="translate(1681,227)" d="m0 0 8 3 5 1v2l-3 1-7-2-7 1-4 2-1-3 6-3z" fill="#E3D6C4"/>
<path transform="translate(207,22)" d="m0 0h3v20h-3z" fill="#6C7056"/>
<path transform="translate(1186,730)" d="m0 0 8 5-2 4-4 3h-2z" fill="#E3E3E3"/>
<path transform="translate(832,703)" d="m0 0h6l2 3v3l1 2h-6v2h-2l-1-2z" fill="#28272A"/>
<path transform="translate(854,697)" d="m0 0h17v2l-4-1-1 4 2 1h-12l3-3-5-1z" fill="#BDBCB9"/>
<path transform="translate(638,671)" d="m0 0 4 1 2 2-1 4-1 1h-5l-4-4z" fill="#EFE3D7"/>
<path transform="translate(460,431)" d="m0 0 5 1 1 2h-5l5 4v5l-1 1h-6l-1-4h2v2h4v-3l-6-2 1-5z" fill="#24937E"/>
<path transform="translate(324,348)" d="m0 0h2v11h-6l-1-1v-6l5-1z" fill="#AFB6B7"/>
<path transform="translate(1609,275)" d="m0 0h14l15 2 3 3-8-1h-15l1-2-10-1z" fill="#C08129"/>
<path transform="translate(538,788)" d="m0 0h6l2 4h-2l2 5 1 4-7-6-4-5z" fill="#69A8AA"/>
<path transform="translate(647,677)" d="m0 0 2 1v2l5 2v2h-3v3h-5l-2-4h3l-1-2-5 1v-2z" fill="#FDFDFD"/>
<path transform="translate(1558,412)" d="m0 0h6l-1 3h-3v2l3 1-1 4v-2l-2 1-2 4h-2l1-11z" fill="#DBA416"/>
<path transform="translate(660,691)" d="m0 0h5l3 3-2 4h-6l-3-3z" fill="#EFE0CC"/>
<path transform="translate(214,348)" d="m0 0h2v11h-5l-2-2 1-6h4z" fill="#9FBCBE"/>
<path transform="translate(463,24)" d="m0 0h3l3 8 1-2h2l-1 5-2 2v-2h-2l-1-4-1 6h-2z" fill="#5C898E"/>
<path transform="translate(1144,757)" d="m0 0 3 2v3h14l-4 3h-6l-2-1v2h2l1 3-5-1 1-5-3-1z" fill="#530202"/>
<path transform="translate(1178,742)" d="m0 0 6 1 1 2-14 3-2-1-1 4-1-3v-4l5-1 6 1z" fill="#440B0C"/>
<path transform="translate(295,738)" d="m0 0 5 1 1 5-2 2h-5l-2-2 1-5z" fill="#71797A"/>
<path transform="translate(559,713)" d="m0 0h3v3h2l1-3h3v3h2l1-3h2l-2 6h-4l-1-2-2 3-3-1z" fill="#FDFDFD"/>
<path transform="translate(948,667)" d="m0 0h4v2l-9 4-5 7-5-1v-2z" fill="#E8E8E8"/>
<path transform="translate(1699,199)" d="m0 0h5l3 6-1 3-5-3-1-2-4 4-2-1z" fill="#CA9029"/>
<path transform="translate(214,799)" d="m0 0h4v2h2v7l-2 2-5-1 2-1v-5l-3-1z" fill="#F9F8F9"/>
<path transform="translate(737,715)" d="m0 0 1 2v5l-8 3h-3v-6h5z" fill="#530202"/>
<path transform="translate(423,435)" d="m0 0h7v3h-2l1 4-6 1-2-2 1-5z" fill="#0F8C6C"/>
<path transform="translate(1542,275)" d="m0 0h1v7h2l1 12h-6l-1-2h4l-2-10z" fill="#CBA36A"/>
<path transform="translate(626,788)" d="m0 0h2l1 6-2 5h-5v-8z" fill="#5D1C0E"/>
<path transform="translate(360,746)" d="m0 0 3 1 4 1 1-2h4v6h-8l-3-2v2h-2v-5z" fill="#BDC0C0"/>
<path transform="translate(631,712)" d="m0 0h4l-1 8h5v2h-10z" fill="#281C1E"/>
<path transform="translate(1139,675)" d="m0 0 13 1-1 5-9-1-3-1z" fill="#B5BDBD"/>
<path transform="translate(749,675)" d="m0 0 13 1-1 5-9-1-3-1z" fill="#B5BDBD"/>
<path transform="translate(216,505)" d="m0 0 5 1 1 1-1 7h-6l-1-5 5-2-4-1z" fill="#8FA4A6"/>
<path transform="translate(322,28)" d="m0 0 6 1v4h-6v2l6-1-1 3h-5l-2-2v-5z" fill="#677477"/>
<path transform="translate(137,31)" d="m0 0 5 1 1 5-1 3-5-1-1-1v-6z" fill="#F6F6F5"/>
<path transform="translate(1208,795)" d="m0 0 4 2 6 6-2 4-6 6h-2l2-4 4-4-2-4-4-4z" fill="#202124"/>
<path transform="translate(1043,669)" d="m0 0h8v4h2v2h-6v-2h2v-2h-3v5h-3l-1-1v-5z" fill="#889EA1"/>
<path transform="translate(1442,654)" d="m0 0h4 4v2l-4 2-1 10h-3z" fill="#283539"/>
<path transform="translate(565,637)" d="m0 0 3 1-1 2-2-1v2l9-2 1 2-1 4-4-1h-2l-5 1v-2l1-1-1-4z" fill="#8EB2B2"/>
<path transform="translate(1638,416)" d="m0 0h5v4l-1 5h-9l2-1v-2l3-1-1-4z" fill="#DCA516"/>
<path transform="translate(1531,186)" d="m0 0 3 1-5 4-10 4-5-1 2-2z" fill="#71A7A5"/>
<path transform="translate(122,31)" d="m0 0 4 1 1 1-1 7-5-1-1-1v-5z" fill="#F6F6F5"/>
<path transform="translate(835,786)" d="m0 0h8l1 4 2 1-8 1-1 3h-2v-4h2l-2-2z" fill="#98A4A6"/>
<path transform="translate(1176,748)" d="m0 0 2 1-3 4h-2l-1 3-4 3h-2l1-6 4-4z" fill="#EAEAEA"/>
<path transform="translate(228,656)" d="m0 0h5l1 4-5 2h4l-1 3h-5l-1-6z" fill="#7DA6AA"/>
<path transform="translate(1077,637)" d="m0 0h6v9h-5l-1-7z" fill="#BC833E"/>
<path transform="translate(246,434)" d="m0 0 4 2v9h-2v-8l-4 1-1 7h-2v-10z" fill="#FDFDFD"/>
<path transform="translate(1642,144)" d="m0 0h5l-4 3 2 4 4 1-2 1v8h-1l-2-9-3 4-2 1 1-5z" fill="#935222"/>
<path transform="translate(153,31)" d="m0 0 5 1 1 5-2 3h-4l-1-2v-6z" fill="#F6F6F4"/>
<path transform="translate(407,637)" d="m0 0h1l1 5 4-3h2l1 4h-2l-1 2h-11l1-4h3z" fill="#667477"/>
<path transform="translate(1565,268)" d="m0 0h13l-4 2h-3v2h-17l3-2z" fill="#C08129"/>
<path transform="translate(1640,155)" d="m0 0 3 4-1 2-2-1h-7l-1 4-1-4h-6v-2l15-1z" fill="#5D0B04"/>
<path transform="translate(762,708)" d="m0 0 2 1v3h2l3 5-8-1-3-1 1-4z" fill="#C0C0C0"/>
<path transform="translate(676,703)" d="m0 0h3l1 3h3l-1 3-4 2h-3v-3l-4-1 3-3z" fill="#FDFDFD"/>
<path transform="translate(1124,673)" d="m0 0 5 1 3 8-9-3v-5z" fill="#C1C5C6"/>
<path transform="translate(734,673)" d="m0 0 5 1 3 8-9-3v-5z" fill="#C1C5C6"/>
<path transform="translate(809,638)" d="m0 0h4l4 1v4h-2v2l-4-1v-3h-2l-1 4h-1v-6z" fill="#8D9A9C"/>
<path transform="translate(329,505)" d="m0 0 5 1 1 4-6 1 4 3h-5l-2-3 1-5z" fill="#839699"/>
<path transform="translate(1683,180)" d="m0 0 5 5 4-5h9l-4 2-5 1-2 4-4 2-4-7z" fill="#6B1B09"/>
<path transform="translate(505,28)" d="m0 0h5l1 5h-6l1 2h5l-1 2h-5l-2-2v-5z" fill="#627578"/>
<path transform="translate(794,842)" d="m0 0h2v3h5l2 3 1-2 2 4-4 1-5-1-1-4h-5l2-2z" fill="#510303"/>
<path transform="translate(540,821)" d="m0 0h9v1h-5l1 2 3 1h14l-3 2-10 1-8-3z" fill="#4B0707"/>
<path transform="translate(1142,769)" d="m0 0h7v2l3 3-1 2h-6l-2-3h-3z" fill="#B7BFBE"/>
<path transform="translate(833,765)" d="m0 0 9 1 6 1v2l4 1h-13l-5-3z" fill="#371314"/>
<path transform="translate(1118,698)" d="m0 0 2 4-3 1v4l4 1 1 2 8 1-3 2-9-1 2-1v-2l-4 3v-11z" fill="#BF8D48"/>
<path transform="translate(237,656)" d="m0 0h8l-1 9h-2v-7l-3 3-1 4h-2z" fill="#58A6AD"/>
<path transform="translate(457,636)" d="m0 0h2l-1 9-1-2-3 2h-3l1-6-2-1 4-1 2 2z" fill="#98AAAC"/>
<path transform="translate(286,505)" d="m0 0h5l1 1v8h-6l-1-4 5-3h-5z" fill="#7F8C8E"/>
<path transform="translate(272,506)" d="m0 0h2v8h-7l-1-4 2-2h4z" fill="#91ADB0"/>
<path transform="translate(193,351)" d="m0 0 5 1 1 5-2 2-5-1v-6z" fill="#B1C5C7"/>
<path transform="translate(1729,21)" d="m0 0 7 1 3 5-1 4h-1l-2-6-1-1h-6l-3 7-2-1 1-6z" fill="#252E32"/>
<path transform="translate(744,744)" d="m0 0m-3 1 5 1-5 4h-5l-1 3-4-2 1-3z" fill="#450A0B"/>
<path transform="translate(540,713)" d="m0 0 4 1 2 1v-2h3v6l-3 1-3-3-1 3-2-1z" fill="#FDFDFD"/>
<path transform="translate(1118,709)" d="m0 0h2v2l11 4v1h-12l-3-3z" fill="#361315"/>
<path transform="translate(1180,697)" d="m0 0h14v2h-2v2h-6l-1-2-2 2-4-1-1-2z" fill="#B78030"/>
<path transform="translate(308,506)" d="m0 0h2v8h-7l-1-4 2-2h4z" fill="#92989A"/>
<path transform="translate(209,656)" d="m0 0h6l-1 4-4-2v4h4l-1 3h-6l-1-4z" fill="#DEA814"/>
<path transform="translate(923,658)" d="m0 0h9l3 3v5l-3 3h-9l1-2h7l1-3-3-4-6-1z" fill="#C08129"/>
<path transform="translate(199,654)" d="m0 0h5l1 3-6-1v2l5 2v4l-5 1 3-4-5-1v-5z" fill="#B29157"/>
<path transform="translate(850,800)" d="m0 0h5v2l4 1v-3h2l-1 5-4 1-4-1-1 3h-2z" fill="#6E7E80"/>
<path transform="translate(1006,668)" d="m0 0 1 4-4 5-2-1-3-1v-5l7-1z" fill="#95A1A3"/>
<path transform="translate(295,28)" d="m0 0h5l1 1v8h-7l1-5h5l-1-2h-5z" fill="#69797C"/>
<path transform="translate(414,28)" d="m0 0h5l1 2-3 1 3 1 1 3-1 2h-6l-1-3h4l-4-2z" fill="#2D9685"/>
<path transform="translate(655,25)" d="m0 0 2 4 4-4 2 1-2 3h-2v2h2l3 6-4-2v-2h-3l-2 4z" fill="#445E62"/>
<path transform="translate(345,838)" d="m0 0h3v3h4l-1 8h-2l-1-5-3 4z" fill="#5B6D70"/>
<path transform="translate(188,501)" d="m0 0 1 4h5l1 1v8h-1l-2-7-2 1-1 6h-2v-12z" fill="#759295"/>
<path transform="translate(682,435)" d="m0 0h6l1 2-4 1 4 2-1 4h-6v-3h4l-5-3z" fill="#2C9686"/>
<path transform="translate(654,435)" d="m0 0h6l1 2-4 1 4 2-1 4h-6v-3h4l-5-3z" fill="#2C9686"/>
<path transform="translate(1647,291)" d="m0 0 2 1 3 4v7l-3 4h-7l-1 2v-3l7-2 2-8-3-1z" fill="#E0D2BE"/>
<path transform="translate(1557,168)" d="m0 0 5 2h7v5l-6 1z" fill="#DAB042"/>
<path transform="translate(346,808)" d="m0 0h5v6l-4 2h-3l1-7z" fill="#A7B7B9"/>
<path transform="translate(924,691)" d="m0 0 6 2 1 4 4 1 5 3-2 1-5-1-6-5z" fill="#480909"/>
<path transform="translate(164,682)" d="m0 0h2l2 5 4-2 1-2h3l-1 4 3-1v2l-5 1-11-1 2-1z" fill="#353F42"/>
<path transform="translate(247,654)" d="m0 0h6l2 2-3 4-2 7-2-1 1-7 1-2-3-1z" fill="#5AA6AD"/>
<path transform="translate(161,618)" d="m0 0h5l1 4-1 3-3 1-3-2v-5z" fill="#FBFBFB"/>
<path transform="translate(615,432)" d="m0 0 2 1v2h2v2h-2v5h2v2l-5-1-1-8z" fill="#2F9788"/>
<path transform="translate(167,351)" d="m0 0h2l1 3 3-3 2 3 1-3 2 1-2 7h-2l-2-3-1 3h-2z" fill="#90B0B3"/>
<path transform="translate(1540,296)" d="m0 0 4 1-1 2 3 2-1 3-5-1-2-4z" fill="#BF883A"/>
<path transform="translate(281,252)" d="m0 0 2 1v14h-3v-14z" fill="#3B9B93"/>
<path transform="translate(193,252)" d="m0 0 2 1v14h-3v-14z" fill="#3B9B93"/>
<path transform="translate(1668,189)" d="m0 0 4 1 3 4v5l-4-2-3-4z" fill="#EEBD0A"/>
<path transform="translate(195,25)" d="m0 0 5 1 1 4-1 2h-6v-6z" fill="#F4F2F0"/>
<path transform="translate(550,802)" d="m0 0 7 4-2 1-2-1 1 7h-2l-4-4z" fill="#560101"/>
<path transform="translate(1136,754)" d="m0 0 5 1 2 4 5 4v2l-4-1v-2l-6-2-2-3z" fill="#341919"/>
<path transform="translate(1177,699)" d="m0 0 6 1 1 2-2 4h-6v-6z" fill="#4E0A08"/>
<path transform="translate(356,618)" d="m0 0h5l1 4-1 3-3 1-3-3z" fill="#FBFBFB"/>
<path transform="translate(692,432)" d="m0 0 2 1v2h2v2h-2v5h2v2h-4l-2-9z" fill="#2E9787"/>
<path transform="translate(286,431)" d="m0 0h3v14h-3z" fill="#FDFDFD"/>
<path transform="translate(281,431)" d="m0 0h3v14h-3z" fill="#FDFDFD"/>
<path transform="translate(1549,277)" d="m0 0 21 1 5 1v2l-7-1h-22z" fill="#C18228"/>
<path transform="translate(591,837)" d="m0 0 1 2-1 2h3l-1-4 6 2v3l-4 2-5-1-1-4z" fill="#A4C8CE"/>
<path transform="translate(421,840)" d="m0 0h6l4 3-3 2v-2h-2v3h-5z" fill="#A6ACAD"/>
<path transform="translate(625,813)" d="m0 0h3v3l5 2 1 3 2 1v2l4-1v2l-5 1-7-8-3-3z" fill="#4C0606"/>
<path transform="translate(758,798)" d="m0 0 2 2-1 3h-3v2l-5-1v-5h6z" fill="#B1B4B4"/>
<path transform="translate(1153,785)" d="m0 0h2l-1 6h2l1-2 4-2h2v5h-11z" fill="#7E8688"/>
<path transform="translate(763,785)" d="m0 0h2l-1 6h2l1-2 4-2h2v5h-11z" fill="#7E8688"/>
<path transform="translate(953,677)" d="m0 0h2l-1 4-11 2-4-2 1-2h12z" fill="#4C0606"/>
<path transform="translate(1119,634)" d="m0 0 3 1-3 4 1 9-3-1-1-8z" fill="#D8A018"/>
<path transform="translate(924,634)" d="m0 0 3 1-3 4 1 9-3-1-1-8z" fill="#D8A018"/>
<path transform="translate(729,634)" d="m0 0 3 1-3 4 1 9-3-1-1-8z" fill="#D8A018"/>
<path transform="translate(534,634)" d="m0 0 3 1-3 4 1 9-3-1-1-8z" fill="#D8A018"/>
<path transform="translate(780,638)" d="m0 0h7v3h-2v2h2v2h-4l-1-4-2 4h-2l1-6z" fill="#88A3A5"/>
<path transform="translate(1546,194)" d="m0 0 2 1-2 2 1 2-7 4-4-1 5-5z" fill="#3B1012"/>
<path transform="translate(237,28)" d="m0 0h4l-3 9-2 2-3-1 2-5z" fill="#5F644D"/>
<path transform="translate(822,787)" d="m0 0h4v4h6l-1 2h-13l1-5z" fill="#667679"/>
<path transform="translate(1174,733)" d="m0 0h3v2l-4 3-8 2v-5l5-1z" fill="#560101"/>
<path transform="translate(430,638)" d="m0 0h5l-1 8h-3l2-6h-2v4h-2v-2h-2v-3z" fill="#6D8184"/>
<path transform="translate(153,506)" d="m0 0h5v8h-5z" fill="#DCDEDF"/>
<path transform="translate(1645,146)" d="m0 0h7l2 6h-6z" fill="#EAB80C"/>
<path transform="translate(382,809)" d="m0 0 6 1h3v5h-6-3z" fill="#A8B6B7"/>
<path transform="translate(364,809)" d="m0 0 4 2 1 2-6 2-4 1v-5z" fill="#B4BEBF"/>
<path transform="translate(571,767)" d="m0 0h4v7h-5l-1-1v-5z" fill="#7F9A9D"/>
<path transform="translate(841,752)" d="m0 0m-3 1 9 1 6 1v1l-10 1h-9v-3z" fill="#BFB3A4"/>
<path transform="translate(1175,746)" d="m0 0h7l-2 4-9-1-2 4-1-3 1-3z" fill="#BFA889"/>
<path transform="translate(961,681)" d="m0 0 1 2-3 3-8 2-3-3 7-3z" fill="#530202"/>
<path transform="translate(1490,653)" d="m0 0 4 2 3 3 4-1 3-3 2 1-7 7-4-2-5-5z" fill="#3B5B60"/>
<path transform="translate(1183,638)" d="m0 0 7 1-2 2v3l-10-1 1-3h3z" fill="#DADCDC"/>
<path transform="translate(177,501)" d="m0 0h8l1 2h-4v11h-2v-11h-3z" fill="#8BAFB2"/>
<path transform="translate(357,348)" d="m0 0h5l1 6-1 5h-5l-1-3h2v2h3l-1-3-2-2 2-1v-2l-2-1v2h-2z" fill="#84A4A7"/>
<path transform="translate(150,349)" d="m0 0 4 1 1 1v5l-2 2h-3z" fill="#FDFDFD"/>
<path transform="translate(209,252)" d="m0 0h1v6l2 1-1 8h-3v-14z" fill="#32988B"/>
<path transform="translate(304,28)" d="m0 0h12l-1 2h-4v7h-1l-1-7h-2l-1 7h-2z" fill="#3F5F64"/>
<path transform="translate(786,844)" d="m0 0 4 1v2h3l-1 3-5 1-2-1v-5z" fill="#692711"/>
<path transform="translate(374,747)" d="m0 0h8l1 5h-9z" fill="#AAB6B8"/>
<path transform="translate(971,705)" d="m0 0h3l1 3h-3l-1 8-3-1v-8z" fill="#C2C2C2"/>
<path transform="translate(1130,697)" d="m0 0 4 2 3 4-2 4v-2h-3l-4-6z" fill="#C08129"/>
<path transform="translate(739,697)" d="m0 0h12l-1 3-7 1h-3z" fill="#C08129"/>
<path transform="translate(655,685)" d="m0 0 5 2 1 3-7-2v3h2v2l-5-2 1-5z" fill="#FDFDFD"/>
<path transform="translate(473,618)" d="m0 0h5l2 3-3 4-4-2-1-4z" fill="#FDFDFD"/>
<path transform="translate(366,618)" d="m0 0h6l1 3-2 4-4-1-2-4z" fill="#FBFBFB"/>
<path transform="translate(278,618)" d="m0 0h5l2 3-3 4-4-2-1-4z" fill="#FDFDFD"/>
<path transform="translate(171,618)" d="m0 0h6l1 3-2 4-4-1-2-4z" fill="#FBFBFB"/>
<path transform="translate(1530,259)" d="m0 0 3 1 9 12v2l-4-2-4-6-4-5z" fill="#CBA36B"/>
<path transform="translate(1546,172)" d="m0 0 5 1-2 4-6 5v-3l4-3h-4v-3z" fill="#58A6AD"/>
<path transform="translate(160,43)" d="m0 0 1 4-5 2-6-1-1-4 8 1z" fill="#463F2F"/>
<path transform="translate(1139,786)" d="m0 0h3v7l-1 2-3-1-1-5-2-1z" fill="#8EA3A6"/>
<path transform="translate(749,786)" d="m0 0h3v7l-1 2-3-1-1-5-2-1z" fill="#8EA3A6"/>
<path transform="translate(1183,714)" d="m0 0 10 1-3 2-5 2-6-2-2-2z" fill="#4E0505"/>
<path transform="translate(669,697)" d="m0 0 3 1-4 2 2 2 3-2h3v2l-4 2h-5l-2-4z" fill="#FDFDFD"/>
<path transform="translate(1159,675)" d="m0 0 4 1-1 4-5 1-2-2-2 1v-4z" fill="#B7C2C3"/>
<path transform="translate(769,675)" d="m0 0 4 1-1 4-5 1-2-2-2 1v-4z" fill="#B7C2C3"/>
<path transform="translate(264,432)" d="m0 0h2v3h2v2h-2v6h2v2l-4-1v-7h-2v-2h2z" fill="#FDFDFD"/>
<path transform="translate(298,351)" d="m0 0 5 1v7h-5l-1-4 4-2-4-1z" fill="#87A9AD"/>
<path transform="translate(202,351)" d="m0 0 5 1v7h-5l-1-4 4-2-4-1z" fill="#87A9AD"/>
<path transform="translate(262,256)" d="m0 0 4 1 1 2v8h-3v-8l-4-1z" fill="#379A8F"/>
<path transform="translate(230,252)" d="m0 0 6 1v3h-7l-2 6h-1l-1-7z" fill="#34998D"/>
<path transform="translate(1619,204)" d="m0 0 6 2 6 4 1 5h-2l-1-3-5-2v-2l-5-2z" fill="#ECEAE8"/>
<path transform="translate(1783,36)" d="m0 0h2l5 5 8 1 1 2h-9l-6-4z" fill="#273236"/>
<path transform="translate(355,841)" d="m0 0 2 1-1 4 2 1v-6l3 1v5l-2 2-5-1v-6z" fill="#475F63"/>
<path transform="translate(372,841)" d="m0 0 5 1-1 6h-5v-6z" fill="#677072"/>
<path transform="translate(756,841)" d="m0 0h15l1 2-8 2-8-3z" fill="#C08129"/>
<path transform="translate(1145,797)" d="m0 0h1v8h-3l-2 2v-2l-3-1v-3h2v2h2v-3h2z" fill="#768C8E"/>
<path transform="translate(801,757)" d="m0 0h1l-1 8-2 5-2 1v3h-4l2-5 4-6z" fill="#510303"/>
<path transform="translate(626,698)" d="m0 0h7v6l-3 2v-2h-5v-2h5v-2h-4z" fill="#CE941F"/>
<path transform="translate(455,505)" d="m0 0 4 1-3 1-1 2h5l1-2 1 3h-7l1 2 5-1-1 3h-5l-2-2v-5z" fill="#5F9499"/>
<path transform="translate(104,30)" d="m0 0h11v4l-11-1z" fill="#3C4D4A"/>
<path transform="translate(741,842)" d="m0 0 4 1 1 8-1-2-4-2-3-4z" fill="#C08129"/>
<path transform="translate(1138,702)" d="m0 0h1v5l-6 6h-6l3-2 5-4 1-4z" fill="#F2F2F2"/>
<path transform="translate(179,260)" d="m0 0h3l1 4-1 3h-5l-1-5z" fill="#70B8AB"/>
<path transform="translate(214,36)" d="m0 0 2 3 6-1 2-1v5h-10l-1-5z" fill="#3A362C"/>
<path transform="translate(380,31)" d="m0 0h8l2 6-3-1v-2l-5 1-1 2h-2z" fill="#1C9077"/>
<path transform="translate(1849,24)" d="m0 0h3l1 7 1-2h5l-2 4-5 1-1-1v-8z" fill="#BAC6C9"/>
<path transform="translate(402,28)" d="m0 0 4 2v6h-2v5h-2z" fill="#2D9687"/>
<path transform="translate(1849,25)" d="m0 0h2l1 8 1 3h-2v4h-2z" fill="#EBE5ED"/>
<path transform="translate(790,846)" d="m0 0h6l2 3h4v2h-13l4-4z" fill="#B37124"/>
<path transform="translate(1166,760)" d="m0 0h2l-1 9-2 2-2-4h2l-1-2-2-1z" fill="#550604"/>
<path transform="translate(964,696)" d="m0 0h2l-2 4-6 5-1-2 2-5z" fill="#E7E7E7"/>
<path transform="translate(1036,668)" d="m0 0h2l1 5v3l-6-2v-4h2zm3 2h2v3h-2z" fill="#819B9D"/>
<path transform="translate(773,638)" d="m0 0 4 1-1 6-5-1 1-5z" fill="#838F91"/>
<path transform="translate(422,505)" d="m0 0 4 1-3 1-1 2h5l1-2v3h-6l1 2 5-1-1 3h-5l-2-2v-5z" fill="#588D92"/>
<path transform="translate(470,432)" d="m0 0 1 3h5l1 2v7h-3v-7l-4-1z" fill="#399B91"/>
<path transform="translate(1670,263)" d="m0 0h2l-1 4-5 6-3 3-2-1 3-5 3-3z" fill="#CCB089"/>
<path transform="translate(243,262)" d="m0 0h4l1 5h-7l-1-4z" fill="#71B8AD"/>
<path transform="translate(200,262)" d="m0 0h4l1 5h-7l-1-4z" fill="#71B8AD"/>
<path transform="translate(152,253)" d="m0 0h2l-1 5h2v6l2 3h-5z" fill="#108C6C"/>
<path transform="translate(1530,189)" d="m0 0 2 1v2l-12 5-1-2 2-2z" fill="#440B0C"/>
<path transform="translate(1677,182)" d="m0 0h5l3 4v3l-4-1-4-4z" fill="#F5C605"/>
<path transform="translate(596,25)" d="m0 0h1v7h2l2-4 2 1-1 4 1 4-3-1-3-3-1 4z" fill="#3C5255"/>
<path transform="translate(1791,25)" d="m0 0h6l2 3-1 4-4 3 2-4v-3l-6 1z" fill="#263034"/>
<path transform="translate(1155,800)" d="m0 0h5v5l-10 1-3-1 1-4v2l10 1z" fill="#425154"/>
<path transform="translate(577,767)" d="m0 0h9v2l-2 1-2 3-1-3-2 3h-2z" fill="#738184"/>
<path transform="translate(1120,637)" d="m0 0h2v13l-3-1v-7-4z" fill="#C4C8C9"/>
<path transform="translate(925,637)" d="m0 0h2v13l-3-1v-7-4z" fill="#C4C8C9"/>
<path transform="translate(730,637)" d="m0 0h2v13l-3-1v-7-4z" fill="#C4C8C9"/>
<path transform="translate(535,637)" d="m0 0h2v13l-3-1v-7-4z" fill="#C4C8C9"/>
<path transform="translate(490,618)" d="m0 0 4 1v6h-5v-6z" fill="#FDFDFD"/>
<path transform="translate(295,618)" d="m0 0 4 1v6h-5v-6z" fill="#FDFDFD"/>
<path transform="translate(488,435)" d="m0 0h6v2h-3v7h-3z" fill="#35998E"/>
<path transform="translate(1618,413)" d="m0 0h2v7l-2 5h-2l1-11z" fill="#D9A118"/>
<path transform="translate(383,348)" d="m0 0 3 1v8l-4-1-1-1v-5z" fill="#FDFDFD"/>
<path transform="translate(1618,157)" d="m0 0h15v1l-11 2-5 3z" fill="#763215"/>
<path transform="translate(214,28)" d="m0 0h9l1 5-4-2-6 1z" fill="#474131"/>
<path transform="translate(435,841)" d="m0 0 3 1v4l-5-1-5 1 4-4z" fill="#687E81"/>
<path transform="translate(401,841)" d="m0 0h2l1 4 1-4h2l-1 7-4 2z" fill="#5D676A"/>
<path transform="translate(1117,818)" d="m0 0h11v5l-2 1-1-2-4-2-1 2-2-1z" fill="#A7C9D0"/>
<path transform="translate(727,818)" d="m0 0h11v5l-2 1-1-2-4-2-1 2-2-1z" fill="#A7C9D0"/>
<path transform="translate(737,800)" d="m0 0 2 3 2-2 2 1v3h-16v-1h6l1-2 3 1z" fill="#273135"/>
<path transform="translate(344,777)" d="m0 0h7l1 6-3-3-4 1-2 3v-6z" fill="#FAF9FA"/>
<path transform="translate(966,692)" d="m0 0 4 1-3 2-8 2-2-4z" fill="#4D0606"/>
<path transform="translate(1009,669)" d="m0 0h3v5h6l1-2v3h-11v-5z" fill="#799194"/>
<path transform="translate(962,638)" d="m0 0 3 1v6h-5v-6z" fill="#7B9497"/>
<path transform="translate(350,506)" d="m0 0 4 1 1 3-2 3-4-1v-5z" fill="#FDFDFD"/>
<path transform="translate(227,506)" d="m0 0 4 1v5l-4 1-2-4z" fill="#F9F9F9"/>
<path transform="translate(548,433)" d="m0 0h2v2h3v3h-3v2h-2v-2h-3v-3h3z" fill="#279481"/>
<path transform="translate(1535,133)" d="m0 0 7 1v15h-1l-1-11-5-2z" fill="#7A2D0E"/>
<path transform="translate(155,28)" d="m0 0 6 1v8l-2 1-3-7-2-2z" fill="#463E2D"/>
<path transform="translate(1180,818)" d="m0 0 4 5 4 6-6-2-2-2z" fill="#58A6AD"/>
<path transform="translate(651,788)" d="m0 0 5 1 2 2-1 4-1-3-4 1-2 1v-5z" fill="#823C15"/>
<path transform="translate(1132,749)" d="m0 0 4 1 5 2 1 4-7-1-3-3z" fill="#520303"/>
<path transform="translate(839,745)" d="m0 0h3v3l3 1-4 2-5-2v-2z" fill="#560101"/>
<path transform="translate(551,713)" d="m0 0h6v3l-4 1v2h5v1h-7z" fill="#FDFDFD"/>
<path transform="translate(1155,708)" d="m0 0 5 2-3 2-8 3v-3z" fill="#EDEDED"/>
<path transform="translate(1185,705)" d="m0 0h2v3h2l2 4h-6l-2-6z" fill="#500A07"/>
<path transform="translate(890,698)" d="m0 0 3 3v12l-2-2z" fill="#B97826"/>
<path transform="translate(971,684)" d="m0 0 6 2-1 4-5 2z" fill="#E1E1E1"/>
<path transform="translate(921,667)" d="m0 0h2v2l8 2-2 2h-7l-1-1z" fill="#3D0F10"/>
<path transform="translate(1185,640)" d="m0 0h5l1 5h-10l-1 3-2-1 1-3h9v-3z" fill="#46686C"/>
<path transform="translate(789,637)" d="m0 0 6 2v5h-3v-3l-1 2h-2z" fill="#7B8F92"/>
<path transform="translate(823,637)" d="m0 0h2l-1 5-2 3-1-2v2h-3l1-6z" fill="#6D8487"/>
<path transform="translate(430,505)" d="m0 0 3 3 1 2 2-5h2l-3 9-3-1-2-5z" fill="#7AA2A6"/>
<path transform="translate(344,501)" d="m0 0h2v2h-3v2l3 1-1 1-1 7h-2l-1-9 1-3z" fill="#7A9B9E"/>
<path transform="translate(275,505)" d="m0 0h2l3 4 2-4 2 1-3 8h-3z" fill="#7DA3A7"/>
<path transform="translate(167,259)" d="m0 0 5 1-1 5-5-1z" fill="#FDFDFD"/>
<path transform="translate(155,259)" d="m0 0 5 1-1 5-5-1z" fill="#FDFDFD"/>
<path transform="translate(143,252)" d="m0 0 3 2 1 5h-2v2h-3v-5-3z" fill="#6EB7AB"/>
<path transform="translate(1558,220)" d="m0 0m-2 1h2l-1 4-8 7v-3z" fill="#420C0D"/>
<path transform="translate(673,29)" d="m0 0 4 1v5l-4 1-1-1v-5z" fill="#DFE6E7"/>
<path transform="translate(481,29)" d="m0 0 4 1v5l-4 1-1-1v-5z" fill="#E6EBEB"/>
<path transform="translate(843,800)" d="m0 0h5v5h-10l1-3 7 1v-2z" fill="#40585C"/>
<path transform="translate(759,800)" d="m0 0h2v3l11 1v1h-16v-2h3z" fill="#34494D"/>
<path transform="translate(398,779)" d="m0 0h6l1 4-5 1-3-1z" fill="#B4BCBD"/>
<path transform="translate(1122,761)" d="m0 0 4 1 5 2v2h-8z" fill="#301D1D"/>
<path transform="translate(347,746)" d="m0 0h3l1 7h-7l2-3z" fill="#5B6163"/>
<path transform="translate(165,740)" d="m0 0h13l-1 3h-5l-4-1-3 1z" fill="#B2B8B8"/>
<path transform="translate(834,737)" d="m0 0h6l-4 6-3 2-1-3z" fill="#560101"/>
<path transform="translate(820,722)" d="m0 0h2l-1 4h-2v2l-5 1-1-4z" fill="#560101"/>
<path transform="translate(149,710)" d="m0 0h7v5h-7z" fill="#E4E2E5"/>
<path transform="translate(412,651)" d="m0 0h4l1 2 7-2v4h-10v-3z" fill="#BBBEBE"/>
<path transform="translate(235,505)" d="m0 0h6l-4 4 1 3 3 2h-4l-2 4z" fill="#5A6F72"/>
<path transform="translate(413,506)" d="m0 0 3 1v5l-4 1-1-1v-5z" fill="#FCFCFC"/>
<path transform="translate(663,431)" d="m0 0h2v4h5l1 2v7h-2l-1-6-4-2z" fill="#389A8E"/>
<path transform="translate(312,351)" d="m0 0 5 1v3h-5l1 2 3 2-5-1v-6z" fill="#778F92"/>
<path transform="translate(1575,206)" d="m0 0h3l2 7-5 2-3-1 3-1z" fill="#520907"/>
<path transform="translate(1528,175)" d="m0 0 2 1-1 3-8 3v-4z" fill="#5B1D0F"/>
<path transform="translate(1557,173)" d="m0 0h2l1 3-5 3-4 3-2-1 6-7z" fill="#E8E0D4"/>
<path transform="translate(489,28)" d="m0 0 4 4 2-4h2l-2 7h-2l-1 2v-2h-2z" fill="#5B7B7E"/>
<path transform="translate(656,822)" d="m0 0h2v6l-4 2-1-4z" fill="#B57324"/>
<path transform="translate(536,798)" d="m0 0 5 1 1 4h-4l-1 3-1-1z" fill="#500404"/>
<path transform="translate(628,789)" d="m0 0h4v5l-3 3h-5l4-1-1-6z" fill="#C8AA7D"/>
<path transform="translate(1149,764)" d="m0 0 10 1-3 4-5-1v-2h-2z" fill="#C3AB8A"/>
<path transform="translate(1142,724)" d="m0 0 1 2 4-1 5 2-2 3-6-1-3-3z" fill="#341416"/>
<path transform="translate(803,638)" d="m0 0 2 1-1 2h-2l-1 2 4-1-1 3h-3v2h-2v-6l1-2z" fill="#718F92"/>
<path transform="translate(484,619)" d="m0 0h3v6h-7v-2z" fill="#FDFDFD"/>
<path transform="translate(289,619)" d="m0 0h3v6h-7v-2z" fill="#FDFDFD"/>
<path transform="translate(316,506)" d="m0 0 3 1 1 3-1 3-4-1-1-4z" fill="#FAFAFA"/>
<path transform="translate(1549,315)" d="m0 0 4 2 11 2-4 2-8-1z" fill="#C69C63"/>
<path transform="translate(1550,263)" d="m0 0h4l1 4-7 1v-4z" fill="#E2AD12"/>
<path transform="translate(251,257)" d="m0 0 3 1v9h-3z" fill="#379A8F"/>
<path transform="translate(1567,176)" d="m0 0h3l3 6v3h-2l-4-6h-2v-2z" fill="#6F260E"/>
<path transform="translate(790,841)" d="m0 0h8l-2 2-2-1 1 3-5 1-3-3z" fill="#B58532"/>
<path transform="translate(1131,800)" d="m0 0 3 1v2l3-1v3h-11v-2h5z" fill="#2E4246"/>
<path transform="translate(544,792)" d="m0 0h2l4 6-1 4-2-1-3-5z" fill="#441210"/>
<path transform="translate(866,731)" d="m0 0h2l2 6-1 7-3 1 1-10z" fill="#BFBFBF"/>
<path transform="translate(165,708)" d="m0 0h3l-1 4h2l1-2 1 4h-7v-5z" fill="#BBBEBE"/>
<path transform="translate(967,658)" d="m0 0h10v2l-10 2-1-3z" fill="#C08129"/>
<path transform="translate(955,637)" d="m0 0h3l-1 3h-2l-1 3 4-1-1 3-5-1 1-6z" fill="#8EA2A4"/>
<path transform="translate(380,505)" d="m0 0 4 1-4 3 1 3 3 2h-5l-2-3 1-5z" fill="#7A888B"/>
<path transform="translate(339,321)" d="m0 0 1 3h2l1-3 4 4-3 1-1 2v-2h-5z" fill="#7B8789"/>
<path transform="translate(1666,189)" d="m0 0h1v7l-4 3v-7z" fill="#F0BF08"/>
<path transform="translate(1618,162)" d="m0 0h1l-1 13-3 3 1-8 1-7z" fill="#610E05"/>
<path transform="translate(1680,163)" d="m0 0h3l2 4-4 7-2-4 2-5z" fill="#74250C"/>
<path transform="translate(727,798)" d="m0 0h6l1 4-1 2h-6v-3z" fill="#96B0B3"/>
<path transform="translate(550,767)" d="m0 0h4l-1 7h-4v-6z" fill="#7F9FA3"/>
<path transform="translate(150,742)" d="m0 0h5l1 4-5 1z" fill="#F1EFF2"/>
<path transform="translate(683,708)" d="m0 0 5 2 1 3-5 1-4 1 1-3 2-1z" fill="#FDFDFD"/>
<path transform="translate(1016,680)" d="m0 0h6v4l4-2-1 3-8-1z" fill="#889799"/>
<path transform="translate(216,656)" d="m0 0h3v6h2l1-2-1 5-4-1z" fill="#C08129"/>
<path transform="translate(1311,652)" d="m0 0 2 4 1 4h-6l2-7z" fill="#E5EBEB"/>
<path transform="translate(677,435)" d="m0 0h3v9h-3z" fill="#3B9B93"/>
<path transform="translate(649,435)" d="m0 0h3v9h-3z" fill="#3B9B93"/>
<path transform="translate(460,431)" d="m0 0 5 1 1 2h-5l2 3-3 1-2-1 1-5z" fill="#34998D"/>
<path transform="translate(1541,266)" d="m0 0 5 1 1 8-4-4z" fill="#202124"/>
<path transform="translate(1633,263)" d="m0 0 6 1v4l-7-1z" fill="#DEA814"/>
<path transform="translate(272,260)" d="m0 0h2l1 5h-7l1-4z" fill="#81C0B6"/>
<path transform="translate(1677,259)" d="m0 0h1v7h-5l-1-3z" fill="#EBB90C"/>
<path transform="translate(1680,255)" d="m0 0h1v8l-1 6-2-4 1-9z" fill="#75260C"/>
<path transform="translate(1643,151)" d="m0 0 3 3-1 6-4-2z" fill="#F6C704"/>
<path transform="translate(158,41)" d="m0 0 1 2-2 3h-5v-4z" fill="#EAEFF1"/>
<path transform="translate(403,810)" d="m0 0h6l-1 4-5 1-1-4z" fill="#B5BEBF"/>
<path transform="translate(827,719)" d="m0 0h3v2h-2l-1 4h-4l-1-4z" fill="#560101"/>
<path transform="translate(847,718)" d="m0 0h9l4 3-6 1-7-3z" fill="#FBCD02"/>
<path transform="translate(579,431)" d="m0 0 3 1 1 4-1 3h-3l-1-7z" fill="#76B9B3"/>
<path transform="translate(1577,280)" d="m0 0 9 3 4 3-7-1-6-3z" fill="#C49450"/>
<path transform="translate(1610,187)" d="m0 0h2l3 8-1 3-5-8z" fill="#E5DBCE"/>
</svg>
